<?xml version="1.0" standalone="no"?>
<!DOCTYPE svg PUBLIC "-//W3C//DTD SVG 20010904//EN"
 "http://www.w3.org/TR/2001/REC-SVG-20010904/DTD/svg10.dtd">
<svg version="1.0" xmlns="http://www.w3.org/2000/svg"
 width="96.000000pt" height="78.000000pt" viewBox="0 0 96.000000 78.000000"
 preserveAspectRatio="xMidYMid meet">

<g transform="translate(0.000000,78.000000) scale(0.100000,-0.100000)"
fill="#000000" stroke="none">
<path d="M267 756 c-37 -12 -81 -35 -97 -51 -27 -26 -35 -26 -31 -2 1 4 -4 7
-11 6 -7 -1 -20 0 -28 4 -8 3 -32 7 -53 9 l-37 4 0 -363 0 -364 63 3 62 3 5
130 6 130 2 -125 2 -125 320 2 c177 1 325 5 331 8 5 4 7 11 4 16 -4 5 -1 9 6
9 7 0 9 3 6 6 -3 4 2 18 13 32 11 13 17 28 14 33 -3 5 0 9 7 9 7 0 9 3 6 7 -4
3 -1 13 6 21 9 13 9 14 0 8 -7 -4 -13 -2 -13 3 0 6 6 11 13 11 19 0 37 46 23
61 -8 9 -7 10 4 4 12 -6 13 -5 3 6 -17 17 -17 49 0 49 9 0 12 10 9 30 -7 47 5
80 29 80 15 0 19 5 15 16 -3 9 -6 18 -6 20 0 2 -11 4 -25 4 -18 0 -25 5 -25
20 0 10 -6 24 -12 31 -15 14 -11 102 4 93 6 -4 5 3 -1 15 -12 21 -22 28 -20
14 4 -22 -2 -53 -10 -53 -4 0 -6 11 -3 25 5 26 -12 55 -32 55 -8 0 -8 -2 1 -8
6 -4 -12 -7 -40 -8 l-52 -1 38 10 c37 9 37 10 18 24 -12 8 -26 11 -33 7 -6 -4
-8 -3 -4 4 6 10 -49 32 -83 32 -7 0 -29 9 -47 21 -37 23 -163 48 -234 48 -25
0 -75 -10 -113 -23z m56 -13 c-7 -2 -21 -2 -30 0 -10 3 -4 5 12 5 17 0 24 -2
18 -5z m367 -53 c0 -5 -7 -10 -16 -10 -8 0 -12 5 -9 10 3 6 10 10 16 10 5 0 9
-4 9 -10z m-514 -15 c-8 -8 -18 -15 -22 -15 -3 0 -1 7 6 15 7 8 17 15 22 15 5
0 3 -7 -6 -15z m444 6 c0 -17 -15 -19 -28 -5 -11 12 -9 14 8 14 11 0 20 -4 20
-9z m-35 -19 c-3 -3 -11 0 -18 7 -9 10 -8 11 6 5 10 -3 15 -9 12 -12z m-370
-4 c-16 -6 -36 -16 -44 -22 -12 -8 -13 -8 -7 2 9 15 43 31 66 31 8 -1 2 -5
-15 -11z m78 5 c-7 -2 -21 -2 -30 0 -10 3 -4 5 12 5 17 0 24 -2 18 -5z m111
-17 c-10 -8 -21 -12 -24 -10 -5 6 21 24 34 24 6 0 1 -6 -10 -14z m76 10 c0 -2
-7 -7 -16 -10 -8 -3 -12 -2 -9 4 6 10 25 14 25 6z m263 -3 c-13 -2 -33 -2 -45
0 -13 2 -3 4 22 4 25 0 35 -2 23 -4z m-599 -45 c-7 -22 -7 -22 -14 -3 -4 11
-3 23 4 27 15 10 19 3 10 -24z m176 28 c0 -9 -39 -13 -51 -5 -10 6 -4 9 19 9
17 0 32 -2 32 -4z m-123 -26 c2 -21 -11 -27 -22 -10 -7 11 2 30 13 30 4 0 8
-9 9 -20z m49 -3 c1 -9 -1 -15 -6 -12 -4 3 -13 -2 -20 -10 -7 -8 -17 -15 -22
-15 -5 0 4 12 19 26 19 17 22 24 10 20 -11 -4 -16 -2 -12 5 10 14 28 6 31 -14z
m90 8 c-8 -8 -25 -14 -38 -14 -20 1 -21 2 -3 6 11 3 24 9 30 14 16 16 27 10
11 -6z m501 -36 c0 -26 -6 -34 -29 -43 -35 -13 -41 -56 -7 -56 13 0 18 4 13
13 -4 6 4 1 17 -13 l24 -25 -27 -9 c-31 -10 -33 -17 -16 -49 6 -12 14 -36 19
-54 6 -30 5 -33 -16 -33 -20 0 -23 6 -27 55 -3 31 -9 60 -14 65 -5 5 -47 13
-94 18 -61 7 -72 10 -39 11 25 0 54 8 65 16 12 9 14 14 6 15 -7 0 -10 5 -7 10
8 14 26 13 23 -1 -2 -6 3 -14 10 -16 8 -3 12 5 12 22 0 22 -3 25 -20 20 -29
-9 -74 3 -101 26 -25 22 -25 24 15 33 24 6 27 4 22 -9 -5 -14 2 -16 47 -13 38
2 52 7 52 18 0 20 15 30 46 30 22 0 26 -4 26 -31z m-401 -16 c-3 -7 -1 -13 5
-13 7 0 8 -7 4 -17 -4 -10 -7 -27 -7 -38 1 -15 -1 -16 -8 -6 -4 8 -6 21 -2 29
4 10 -7 7 -29 -10 -19 -14 -49 -31 -66 -39 -32 -14 -49 -47 -17 -35 9 3 12 2
9 -5 -4 -6 -13 -8 -20 -5 -8 3 -19 -2 -27 -11 -10 -13 -10 -17 0 -20 13 -5 16
-62 4 -78 -4 -5 -17 -11 -29 -13 -21 -3 -22 0 -21 80 2 79 0 83 -21 86 -27 4
-39 31 -20 43 8 5 40 9 73 9 57 0 58 1 54 25 -6 28 5 33 75 32 34 -1 46 -5 43
-14z m34 7 c0 -5 -4 -10 -10 -10 -5 0 -10 5 -10 10 0 6 5 10 10 10 6 0 10 -4
10 -10z m-170 -20 c0 -5 -5 -10 -11 -10 -5 0 -7 5 -4 10 3 6 8 10 11 10 2 0 4
-4 4 -10z m-163 -22 c-3 -8 -6 -5 -6 6 -1 11 2 17 5 13 3 -3 4 -12 1 -19z m63
2 c0 -5 -9 -10 -20 -10 -11 0 -20 5 -20 10 0 6 9 10 20 10 11 0 20 -4 20 -10z
m405 -10 c-3 -5 -12 -10 -18 -10 -7 0 -6 4 3 10 19 12 23 12 15 0z m-201 -62
c-3 -4 -9 -8 -15 -8 -5 0 -9 4 -9 8 0 5 7 9 15 9 8 0 12 -4 9 -9z m26 -22 c0
-9 -40 -13 -46 -5 -3 5 6 9 20 9 14 0 26 -2 26 -4z m-70 -16 c0 -5 -2 -10 -4
-10 -3 0 -8 5 -11 10 -3 6 -1 10 4 10 6 0 11 -4 11 -10z m28 -37 c-10 -2 -28
-2 -40 0 -13 2 -5 4 17 4 22 1 32 -1 23 -4z m115 0 c-18 -2 -48 -2 -65 0 -18
2 -4 4 32 4 36 0 50 -2 33 -4z m-196 -25 c-3 -8 -6 -5 -6 6 -1 11 2 17 5 13 3
-3 4 -12 1 -19z m48 -7 c-3 -6 -11 -11 -16 -11 -5 0 -4 6 3 14 14 16 24 13 13
-3z m422 -3 c-3 -8 -6 -5 -6 6 -1 11 2 17 5 13 3 -3 4 -12 1 -19z m-2 -38 c3
-5 1 -10 -4 -10 -6 0 -11 5 -11 10 0 6 2 10 4 10 3 0 8 -4 11 -10z m-225 -60
c16 -6 6 -7 -30 -3 -30 3 -57 7 -59 9 -8 7 64 2 89 -6z m190 0 c-14 -4 -43 -8
-65 -8 l-40 1 45 7 c65 10 92 10 60 0z m-249 -28 c-18 -2 -37 0 -42 5 -5 5 11
6 34 3 41 -4 41 -5 8 -8z m263 8 c-5 -5 -25 -12 -44 -15 -35 -5 -35 -5 5 9 51
18 51 18 39 6z m-99 -76 c6 -2 -16 -2 -47 -1 -60 4 -67 0 -45 -22 10 -11 8
-11 -10 0 -34 21 -11 37 45 32 26 -3 52 -7 57 -9z m-27 -31 c-10 -2 -26 -2
-35 0 -10 3 -2 5 17 5 19 0 27 -2 18 -5z"/>
</g>
</svg>
