<?xml version="1.0" standalone="no"?>
<!DOCTYPE svg PUBLIC "-//W3C//DTD SVG 20010904//EN"
 "http://www.w3.org/TR/2001/REC-SVG-20010904/DTD/svg10.dtd">
<svg version="1.0" xmlns="http://www.w3.org/2000/svg"
 width="428.000000pt" height="428.000000pt" viewBox="0 0 428.000000 428.000000"
 preserveAspectRatio="xMidYMid meet">

<g transform="translate(0.000000,428.000000) scale(0.100000,-0.100000)"
fill="#000000" stroke="none">
<path d="M1720 3950 c0 -5 5 -10 11 -10 5 0 7 5 4 10 -3 6 -8 10 -11 10 -2 0
-4 -4 -4 -10z"/>
<path d="M3170 3890 c0 -5 5 -10 10 -10 6 0 10 5 10 10 0 6 -4 10 -10 10 -5 0
-10 -4 -10 -10z"/>
<path d="M1110 3850 c0 -5 5 -10 10 -10 6 0 10 5 10 10 0 6 -4 10 -10 10 -5 0
-10 -4 -10 -10z"/>
<path d="M1952 3851 c2 -7 7 -12 11 -12 12 1 9 15 -3 20 -7 2 -11 -2 -8 -8z"/>
<path d="M2870 3850 c0 -5 5 -10 11 -10 5 0 7 5 4 10 -3 6 -8 10 -11 10 -2 0
-4 -4 -4 -10z"/>
<path d="M1850 3810 c0 -5 5 -10 10 -10 6 0 10 5 10 10 0 6 -4 10 -10 10 -5 0
-10 -4 -10 -10z"/>
<path d="M1983 3795 c-58 -29 -112 -84 -143 -145 -11 -22 -28 -49 -37 -60 -16
-18 -19 -19 -41 -4 -20 13 -26 14 -33 3 -5 -8 -9 -22 -9 -31 0 -10 -4 -18 -10
-18 -5 0 -10 -7 -10 -16 0 -8 -5 -12 -10 -9 -8 5 -8 11 -1 19 11 13 5 26 -11
26 -5 0 -6 -5 -3 -11 4 -6 -1 -17 -11 -25 -13 -10 -15 -17 -7 -20 7 -3 10 -11
7 -18 -3 -7 2 -19 11 -26 18 -15 20 -36 3 -46 -6 -4 -8 -3 -4 4 3 6 2 13 -4
17 -6 4 -8 11 -5 16 10 16 -17 10 -38 -8 -11 -10 -17 -12 -13 -5 5 8 1 12 -11
12 -17 1 -17 2 1 15 20 15 20 15 0 16 -39 1 -68 10 -85 25 -13 12 -19 12 -25
3 -5 -8 -3 -10 6 -4 10 6 12 4 7 -8 -3 -10 -2 -17 3 -17 6 0 10 -5 10 -11 0
-6 -7 -8 -17 -4 -15 5 -16 4 -5 -7 10 -10 16 -10 33 0 16 10 22 10 34 -2 18
-18 19 -26 3 -26 -6 0 -20 -7 -30 -17 -15 -13 -18 -14 -18 -1 0 16 -58 63 -68
54 -3 -4 0 -12 6 -18 15 -15 16 -38 1 -38 -6 0 -8 7 -4 18 5 14 4 15 -6 5 -16
-16 -43 -17 -33 -1 5 7 3 8 -5 3 -18 -10 1 -27 34 -31 29 -3 63 -33 48 -42 -5
-4 -13 -16 -17 -26 -5 -16 -9 -17 -19 -6 -9 10 -9 13 1 17 6 3 12 13 12 24 0
17 -5 19 -35 13 -28 -5 -35 -3 -35 10 0 9 -8 16 -17 16 -15 0 -16 -2 -3 -10
12 -8 12 -10 1 -10 -8 0 -11 -3 -8 -6 3 -4 2 -15 -3 -24 -8 -14 -5 -19 13 -25
l22 -8 -22 -4 c-24 -5 -26 -10 -23 -55 1 -23 -2 -27 -16 -21 -12 4 -15 3 -10
-5 4 -7 3 -12 -2 -12 -6 0 -13 7 -16 16 -3 8 -2 12 4 9 5 -3 14 4 20 15 11 20
-3 30 -15 10 -4 -6 -10 -8 -15 -5 -4 3 -10 -4 -13 -14 -4 -15 -13 -18 -46 -16
-22 1 -41 -2 -41 -8 0 -5 -7 -4 -15 3 -13 11 -15 8 -15 -14 0 -14 -4 -26 -9
-26 -5 0 -11 -11 -13 -25 -3 -13 -2 -22 2 -20 4 2 7 -2 7 -9 0 -17 -27 -9 -44
13 -11 14 -12 14 -13 -1 0 -9 -7 -21 -16 -26 -14 -8 -14 -10 1 -22 14 -12 13
-14 -6 -28 -18 -12 -23 -13 -31 -1 -6 10 -7 4 -3 -18 6 -28 3 -34 -25 -48 -29
-15 -31 -19 -25 -52 4 -24 3 -33 -4 -28 -6 3 -11 2 -11 -3 0 -6 6 -12 13 -14
19 -8 38 2 30 15 -4 7 1 6 10 -2 15 -12 17 -11 17 2 0 9 -4 18 -10 22 -5 3 -7
12 -4 20 8 21 24 8 17 -13 -5 -13 -3 -14 6 -6 10 9 10 17 2 32 -10 19 -6 32
10 32 4 0 8 -8 7 -17 0 -22 9 -60 17 -73 3 -6 1 -10 -4 -10 -6 0 -11 7 -11 15
0 8 -4 15 -10 15 -5 0 -7 -14 -5 -31 5 -39 -3 -59 -20 -53 -10 4 -12 -1 -8
-15 3 -12 10 -21 16 -21 6 0 8 3 5 6 -4 3 3 15 14 26 11 11 17 26 14 34 -6 17
5 19 21 3 7 -7 17 -2 33 18 14 16 20 20 17 10 -5 -13 0 -24 14 -36 15 -12 20
-23 15 -38 -9 -29 -36 -37 -52 -16 -10 14 -15 15 -24 6 -9 -8 -7 -14 9 -22 27
-15 28 -41 1 -34 -12 3 -20 0 -20 -7 0 -7 7 -10 15 -6 8 3 15 1 15 -5 0 -20
59 21 62 43 2 19 10 24 42 26 22 2 49 10 60 18 11 8 31 14 44 14 19 0 22 3 14
13 -7 7 -8 27 -4 47 11 55 4 103 -15 96 -11 -4 -13 -2 -9 9 6 17 -9 21 -19 5
-14 -22 -26 -9 -20 20 7 33 4 35 -26 20 -18 -10 -21 -7 -19 25 1 3 -7 13 -16
22 -13 13 -17 14 -24 3 -5 -8 -6 -19 -2 -25 3 -5 -2 -3 -12 5 -11 8 -14 16 -7
18 6 2 11 10 11 18 0 18 15 18 34 -2 20 -19 72 -24 69 -6 -2 6 4 12 12 12 8 0
15 -5 15 -11 0 -5 5 -7 10 -4 16 10 12 38 -5 31 -8 -3 -15 -1 -15 3 0 14 23
19 47 10 15 -5 25 -3 33 7 7 7 11 14 9 15 -2 0 -12 2 -22 4 -27 5 -29 9 -11
31 8 10 12 12 8 4 -7 -13 -6 -13 11 0 11 9 39 15 69 15 47 0 51 2 55 25 1 14
8 28 14 32 8 5 5 13 -8 27 -10 12 -15 24 -12 28 4 3 7 1 7 -6 0 -7 5 -9 12 -5
7 5 8 3 3 -7 -8 -12 -6 -12 8 0 20 16 13 31 -16 32 -20 1 -21 2 -2 6 11 3 29
12 39 22 11 9 16 10 12 4 -5 -9 1 -13 19 -13 15 0 24 4 20 10 -4 6 5 9 20 8
24 -2 25 -3 8 -16 -16 -12 -15 -13 11 -6 20 5 27 3 22 -4 -7 -12 10 -25 35
-27 13 -1 17 6 16 24 -1 16 3 25 11 23 6 -1 12 3 12 9 0 6 -9 9 -20 6 -11 -3
-20 -2 -21 1 0 4 -2 15 -4 24 -5 29 10 29 36 2 18 -19 21 -29 13 -42 -6 -9 -7
-31 -4 -47 4 -20 2 -35 -7 -43 -7 -7 -13 -9 -13 -5 0 4 -5 2 -12 -5 -8 -8 -8
-15 2 -27 10 -12 10 -24 -5 -63 -28 -76 -104 -211 -162 -288 -63 -85 -83 -136
-83 -214 0 -79 -7 -83 -138 -79 -186 6 -200 4 -229 -22 l-26 -24 6 30 c5 25 3
23 -12 -11 -15 -32 -17 -50 -10 -85 4 -24 8 -108 9 -185 0 -160 -5 -152 90
-155 27 -1 9 -5 -45 -10 -59 -5 -94 -4 -102 3 -8 7 -13 36 -13 81 0 112 -17
65 -21 -60 -2 -64 -1 -68 22 -74 13 -4 18 -7 12 -8 -7 -1 -13 -7 -13 -15 0
-12 -4 -12 -28 -1 -17 9 -77 16 -161 19 -73 3 -136 8 -139 11 -3 3 2 6 11 6
25 2 31 4 44 12 6 4 14 3 18 -3 10 -16 36 -12 52 8 14 16 14 16 9 0 -4 -13 0
-18 14 -18 14 0 18 5 13 17 -5 12 -2 15 10 10 21 -8 32 10 29 48 -1 25 0 27 7
10 8 -19 9 -19 16 -2 4 10 5 21 1 24 -3 3 0 13 7 21 8 11 8 14 0 9 -6 -4 -14
-3 -18 3 -3 6 1 13 9 16 9 4 14 14 12 27 -3 12 -5 22 -6 22 -1 0 -3 8 -5 17
-2 10 1 16 7 15 14 -3 22 39 28 146 1 9 5 15 10 12 6 -4 7 2 3 12 -10 30 -23
41 -41 36 -25 -6 -54 19 -46 40 11 29 32 20 26 -10 -3 -16 -1 -24 4 -20 9 9
10 14 13 44 2 23 16 6 16 -20 0 -12 6 -21 13 -19 6 1 11 -1 10 -5 -2 -5 2 -9
7 -10 6 -2 10 1 10 6 0 5 3 13 8 17 14 14 8 44 -8 38 -11 -5 -13 -2 -8 12 5
13 3 16 -10 11 -9 -3 -19 -2 -22 3 -4 6 0 10 9 10 8 0 22 3 32 7 13 5 15 3 9
-7 -5 -8 -4 -11 3 -7 5 4 8 17 4 30 -5 20 -4 21 11 8 15 -12 17 -12 12 1 -3 8
-1 26 4 40 8 20 6 30 -9 46 -10 11 -16 23 -13 26 4 3 16 -10 28 -30 19 -31 23
-34 29 -18 4 10 3 20 -3 22 -8 3 -8 10 0 23 13 25 4 40 -19 32 -16 -6 -16 -6
1 11 9 9 17 22 17 27 0 13 -24 11 -39 -3 -10 -11 -11 -10 -6 5 4 9 3 17 -3 17
-6 0 -12 -5 -14 -12 -3 -8 -7 -6 -11 5 -4 10 -2 16 5 14 6 -1 13 4 15 11 3 7
-4 12 -15 12 -14 0 -19 -6 -17 -17 3 -21 -14 -45 -26 -37 -5 3 -9 -2 -9 -10 0
-8 5 -18 10 -21 6 -3 10 1 10 9 0 17 14 19 42 8 13 -5 15 -11 8 -22 -9 -13
-10 -13 -10 0 -1 8 -9 -1 -20 -21 -14 -26 -28 -38 -50 -42 -32 -7 -36 -19 -20
-61 7 -21 6 -26 -5 -26 -23 0 -30 4 -27 17 1 7 -5 9 -19 6 -18 -5 -19 -7 -5
-15 9 -5 16 -16 16 -25 0 -11 6 -14 22 -10 20 6 20 5 5 -11 -16 -15 -18 -15
-31 3 -12 17 -17 18 -28 7 -11 -11 -10 -12 7 -6 16 6 18 5 8 -7 -7 -7 -13 -18
-13 -24 0 -5 5 -3 10 5 6 9 10 10 10 3 0 -6 -5 -15 -10 -18 -6 -4 -8 -11 -4
-16 3 -5 1 -16 -6 -24 -7 -8 -7 -15 -1 -19 5 -4 12 -2 16 4 8 13 35 13 35 0 0
-6 -5 -9 -11 -8 -21 5 -20 -20 0 -27 12 -3 21 -11 21 -16 0 -13 -18 -11 -23 4
-3 6 -6 1 -6 -13 -1 -20 -3 -22 -11 -10 -9 13 -10 13 -10 0 -1 -10 -5 -7 -13
7 -12 22 -13 22 -25 3 -6 -11 -12 -27 -12 -35 0 -9 -4 -14 -9 -10 -15 8 -35
-35 -23 -47 15 -15 3 -38 -19 -38 -10 0 -19 -4 -19 -9 0 -5 -3 -17 -6 -25 -5
-12 -2 -15 10 -10 18 7 23 -20 6 -31 -5 -3 -10 -1 -10 4 0 6 -7 11 -15 11 -8
0 -15 -7 -15 -15 0 -8 4 -15 9 -15 5 0 7 -9 4 -20 -6 -21 -23 -28 -23 -9 0 5
-4 7 -10 4 -15 -9 -12 -25 5 -25 8 0 15 -9 15 -19 0 -11 6 -22 13 -24 7 -4 6
-6 -5 -6 -9 -1 -18 4 -20 10 -5 15 -58 -10 -58 -27 0 -18 -35 -21 -113 -8 -37
7 -113 10 -169 8 -115 -4 -131 -13 -169 -91 -19 -39 -21 -57 -18 -164 l4 -121
33 -29 32 -29 151 0 c157 0 198 9 214 47 7 15 9 13 14 -12 6 -30 7 -30 77 -33
61 -2 75 -6 94 -27 27 -29 52 -35 27 -7 -10 10 -17 28 -17 39 0 11 -7 26 -15
33 -25 21 -17 32 10 13 14 -10 30 -35 35 -56 10 -34 12 -36 26 -22 9 8 18 15
22 15 3 0 1 -5 -6 -12 -13 -13 -16 -29 -4 -26 4 2 8 -1 10 -7 1 -5 -4 -10 -10
-10 -7 0 -15 -17 -19 -37 -3 -20 -2 -35 3 -32 4 3 8 0 8 -6 0 -7 7 -5 16 4 8
9 19 16 24 16 15 0 21 -18 8 -23 -8 -3 -6 -6 5 -6 14 -1 16 -7 11 -28 -3 -16
-2 -23 3 -17 6 9 11 8 21 -2 10 -12 10 -14 -3 -14 -8 0 -15 -4 -15 -10 0 -5 6
-10 13 -10 18 1 47 25 47 41 0 11 2 11 10 -1 5 -8 6 -17 1 -20 -4 -3 -8 -15
-8 -26 -1 -17 4 -21 23 -20 13 0 24 7 24 14 0 14 16 16 24 3 7 -10 -23 -25
-43 -22 -9 2 -12 -3 -7 -14 3 -9 2 -13 -4 -10 -6 3 -10 2 -10 -3 0 -6 7 -12
15 -16 9 -3 15 0 15 10 0 8 4 13 10 9 11 -7 3 -33 -19 -58 -13 -16 -13 -19 -1
-28 8 -5 22 -8 31 -6 8 3 24 -2 34 -9 25 -19 41 -18 25 1 -7 8 -16 12 -21 9
-16 -10 -9 5 12 25 13 12 17 21 10 26 -19 11 -12 23 14 23 14 0 25 -4 25 -9 0
-5 -6 -9 -13 -9 -14 0 -17 -38 -4 -57 5 -7 6 -17 3 -22 -3 -4 1 -17 9 -27 12
-16 11 -21 -2 -36 -9 -10 -12 -18 -7 -19 5 0 24 -2 41 -3 20 -2 30 0 27 6 -4
5 -17 8 -30 5 -27 -5 -31 5 -9 23 12 10 18 8 35 -11 10 -13 19 -30 20 -37 0
-17 -33 -29 -38 -14 -4 14 -22 6 -22 -10 0 -6 3 -8 7 -5 3 4 13 2 20 -5 10 -8
17 -8 21 -1 4 5 18 8 32 6 14 -2 31 -4 38 -5 6 -1 12 -6 12 -11 0 -5 -7 -7
-15 -4 -8 4 -17 2 -20 -4 -4 -5 -3 -9 2 -8 4 1 16 -1 26 -6 13 -5 25 -1 42 15
27 26 23 44 -8 36 -15 -4 -17 -2 -8 7 22 22 13 39 -17 32 -25 -5 -28 -3 -27
21 1 18 9 30 24 36 23 8 20 28 -3 28 -8 0 -19 7 -27 16 -7 8 -26 21 -43 29
-17 7 -25 14 -18 14 17 1 15 21 -2 21 -8 0 -28 11 -44 25 -20 16 -33 22 -37
15 -5 -8 -11 -7 -21 1 -21 17 -17 29 9 25 12 -2 30 3 39 12 16 14 20 13 39 -9
11 -13 33 -38 47 -55 15 -16 32 -39 38 -50 6 -10 21 -24 32 -30 12 -6 19 -13
16 -17 -3 -3 3 -10 14 -16 15 -8 21 -8 24 1 3 9 12 9 37 -2 20 -8 28 -16 21
-20 -7 -4 -10 -18 -8 -30 4 -28 31 -41 28 -14 -4 35 0 36 35 5 20 -17 44 -31
54 -31 15 0 18 -5 13 -22 -4 -18 -2 -20 17 -15 29 7 51 -1 51 -20 0 -8 8 -13
18 -12 36 3 43 -1 37 -21 -7 -23 5 -26 24 -8 10 11 15 10 25 -4 8 -12 27 -18
49 -18 35 0 62 -20 39 -28 -7 -2 -12 -8 -12 -14 0 -10 16 -8 55 8 18 7 18 6 7
-9 -8 -9 -19 -15 -24 -14 -6 1 -13 -4 -15 -11 -4 -10 4 -13 28 -10 21 2 33 8
31 16 -4 21 30 27 44 8 7 -10 17 -15 22 -12 5 3 15 -1 22 -9 9 -11 9 -15 1
-15 -6 0 -17 -11 -23 -25 -14 -31 -53 -34 -68 -4 -9 16 -14 18 -26 9 -8 -7
-21 -9 -31 -5 -10 5 -22 7 -26 6 -4 0 -25 7 -47 18 l-39 18 9 -23 c9 -22 6
-28 -12 -25 -5 0 -8 -7 -8 -16 0 -13 -5 -11 -18 10 -17 27 -42 33 -49 11 -2
-7 3 -19 12 -28 15 -14 15 -16 1 -16 -9 0 -16 -4 -16 -10 0 -5 9 -10 20 -10
11 0 20 5 20 10 0 15 19 12 37 -5 8 -8 20 -13 26 -9 7 3 4 -1 -5 -9 -10 -8
-18 -22 -18 -31 0 -11 7 -16 18 -15 9 1 30 -3 45 -9 16 -7 33 -12 39 -12 5 0
7 -7 4 -16 -5 -13 -1 -15 19 -10 14 4 25 2 25 -4 0 -5 7 -10 15 -10 24 0 19
-65 -6 -89 -23 -21 -17 -44 9 -39 10 1 22 -1 29 -5 18 -11 35 49 17 64 -32 27
-3 110 33 93 16 -7 16 -8 -4 -11 -29 -5 -29 -19 -1 -27 18 -4 20 -8 10 -18 -6
-6 -12 -16 -12 -22 0 -5 6 -3 13 6 6 9 24 18 40 22 24 6 29 15 26 43 0 4 9 11
20 15 12 4 25 18 30 30 9 23 9 23 16 -4 4 -15 5 -30 2 -35 -3 -4 1 -14 8 -20
11 -10 17 -10 29 2 17 17 46 20 46 5 0 -5 -5 -10 -11 -10 -5 0 -7 -5 -4 -10 9
-15 25 -12 25 6 0 20 19 8 30 -20 6 -16 8 -12 7 19 0 22 -5 46 -10 53 -7 9 -6
11 7 6 9 -3 16 -11 16 -16 0 -6 8 -17 18 -24 14 -10 15 -15 5 -25 -21 -21 -15
-34 6 -15 11 10 18 23 15 30 -3 7 4 20 14 30 19 16 20 16 26 -7 7 -28 36 -45
36 -22 0 8 -8 15 -17 15 -15 0 -16 2 -3 10 11 7 19 4 31 -12 16 -20 16 -19 23
23 l7 43 18 -28 c12 -17 21 -24 25 -17 4 6 13 11 19 11 8 0 7 -3 -2 -9 -10 -7
-6 -9 13 -8 24 2 25 3 9 15 -17 12 -16 14 7 32 25 19 25 19 33 -2 11 -29 16
-21 26 41 1 3 5 1 11 -5 6 -6 7 -21 1 -39 -11 -39 -4 -55 22 -54 16 0 18 2 7
7 -26 12 -21 32 10 38 17 4 44 22 60 41 21 24 40 35 60 35 18 1 30 6 30 15 0
7 4 13 10 13 5 0 7 -6 4 -13 -3 -8 2 -20 11 -27 19 -16 19 -34 0 -50 -17 -14
-20 -30 -5 -30 6 0 10 5 10 11 0 13 25 39 39 39 5 0 13 5 17 12 4 7 3 8 -4 4
-7 -4 -12 -3 -12 2 0 17 60 8 66 -10 6 -19 16 -23 27 -11 4 3 2 12 -3 18 -14
17 18 29 36 14 7 -6 21 -9 31 -6 14 4 14 5 -4 6 -12 0 -25 6 -28 11 -4 6 -16
8 -28 4 -18 -5 -20 -4 -9 7 6 7 12 21 12 30 0 10 4 21 10 24 6 3 7 -1 4 -10
-5 -11 -2 -14 10 -9 9 3 13 10 10 15 -3 5 0 9 7 9 7 0 9 8 6 21 -4 15 -2 19
10 15 8 -3 20 -6 28 -6 7 0 15 -9 18 -20 3 -11 11 -20 19 -20 8 0 9 3 3 8 -5
4 -15 17 -22 29 -10 17 -10 23 0 26 7 2 9 8 5 12 -4 4 -14 2 -22 -4 -10 -8
-16 -9 -21 -1 -8 13 20 24 40 17 8 -4 17 -2 20 2 3 5 14 7 25 4 15 -4 18 -1
15 16 -2 12 -7 27 -11 34 -6 9 -4 9 8 -1 13 -10 18 -10 24 -1 4 7 3 10 -2 7
-5 -3 -14 0 -21 7 -10 10 -9 16 3 26 12 10 13 9 9 -3 -9 -23 40 -20 61 3 15
17 19 17 45 4 36 -19 43 -19 35 1 -5 12 -2 15 12 12 12 -4 18 1 19 14 1 10 -2
16 -8 13 -5 -4 -9 -2 -9 2 0 10 31 38 44 40 6 2 11 9 12 18 1 8 -2 13 -7 9
-10 -6 -12 19 -2 29 3 4 11 3 17 -3 8 -6 16 -3 23 9 10 16 9 18 -7 14 -15 -4
-18 -1 -13 18 5 17 3 20 -7 14 -8 -5 -11 -4 -7 3 10 15 43 7 39 -9 -2 -8 8 0
22 16 25 30 34 51 17 41 -5 -3 -15 2 -22 11 -12 15 -12 16 4 10 10 -4 16 -3
12 2 -3 5 1 12 7 15 7 3 4 4 -7 3 -12 -1 -21 5 -23 17 -3 16 1 18 27 14 18 -3
34 -1 37 4 3 4 -2 8 -10 8 -9 0 -16 5 -16 10 0 6 6 10 13 9 30 -4 34 2 32 42
-2 33 1 43 17 47 14 3 16 7 7 18 -7 8 -9 17 -5 21 3 3 6 1 6 -4 0 -6 8 -10 18
-8 9 2 22 4 27 5 6 1 0 5 -12 10 -23 9 -32 30 -13 30 6 0 10 7 10 15 0 15 10
19 43 16 9 -1 17 3 17 8 0 6 -11 11 -24 11 -27 0 -42 15 -26 25 5 3 8 24 5 45
-4 32 -2 38 10 34 8 -4 15 -16 15 -29 0 -17 8 -26 30 -34 17 -5 30 -14 30 -18
0 -21 68 -44 121 -41 51 3 54 5 60 33 5 25 7 27 14 12 16 -38 57 -47 214 -47
l151 0 32 29 c34 30 37 47 31 186 -1 11 -1 43 0 70 1 40 -4 58 -28 92 -17 24
-41 46 -55 50 -33 11 -206 10 -302 -1 -83 -10 -112 0 -101 32 4 14 3 14 -5 3
-6 -8 -24 -14 -41 -13 -23 0 -31 -4 -31 -17 0 -14 -6 -17 -30 -13 -25 3 -30 0
-36 -22 l-6 -26 -18 32 c-9 18 -28 35 -40 38 -21 5 -19 7 15 18 26 7 43 8 49
2 14 -14 26 -12 26 4 0 7 -8 16 -17 19 -10 2 -26 8 -35 12 -13 5 -18 2 -18
-10 0 -20 -31 -17 -38 4 -3 10 0 12 11 8 10 -4 18 1 22 14 8 24 22 24 37 -1
16 -26 28 -26 28 0 0 12 -7 20 -18 20 -9 0 -23 9 -30 20 -7 11 -21 20 -31 20
-14 0 -18 5 -14 20 6 24 16 25 33 5 17 -21 44 -20 36 2 -4 9 -1 20 6 25 10 6
8 8 -4 8 -10 0 -18 -7 -18 -16 0 -8 -5 -12 -10 -9 -12 7 -4 42 13 63 16 20 15
62 -1 62 -7 0 -10 4 -7 10 3 5 0 7 -8 4 -9 -3 -17 3 -20 17 -8 31 0 37 18 13
14 -18 14 -18 14 6 0 30 -18 56 -44 63 -15 3 -12 5 9 6 23 1 26 4 17 15 -6 8
-11 18 -10 22 5 30 -2 42 -23 36 -14 -3 -19 -1 -14 6 3 6 0 17 -8 24 -11 11
-11 17 -1 31 16 22 20 21 46 -5 12 -13 19 -16 15 -8 -3 8 -9 23 -12 33 -4 12
-17 17 -41 17 -20 0 -32 -4 -28 -10 3 -5 1 -10 -5 -10 -8 0 -10 10 -6 28 3 15
3 21 0 15 -9 -20 -23 -15 -17 6 3 10 0 22 -6 25 -5 4 -8 13 -4 21 5 14 -4 18
-37 16 -10 0 -11 1 -2 5 6 3 12 20 13 37 0 25 2 28 8 13 7 -18 8 -18 14 -2 8
20 -9 40 -40 50 -14 5 -20 13 -18 26 3 13 -1 18 -14 15 -13 -2 -17 4 -16 30 0
18 3 37 7 41 4 4 3 13 -3 20 -8 10 -16 11 -30 3 -15 -7 -23 -6 -34 5 -17 17
-20 30 -5 21 15 -9 12 4 -5 21 -8 9 -15 24 -15 35 0 10 -4 19 -10 19 -5 0 -10
-12 -10 -26 0 -14 -4 -23 -9 -20 -5 3 -7 15 -4 26 4 16 2 19 -13 14 -14 -4
-13 -1 6 15 19 16 20 20 6 14 -13 -4 -17 -3 -13 4 5 7 -1 10 -15 7 -13 -2 -18
-2 -12 1 7 3 10 14 7 24 -2 9 3 23 11 30 9 8 16 18 16 24 0 5 -10 -1 -23 -15
-21 -22 -26 -24 -42 -11 -11 7 -25 11 -32 9 -8 -3 -13 2 -13 14 0 11 -4 20 -9
20 -5 0 -11 9 -14 19 -3 13 1 21 14 24 11 3 19 10 19 17 0 7 -7 6 -21 -3 -11
-8 -30 -12 -41 -9 -14 3 -19 1 -14 -6 4 -7 3 -12 -3 -12 -17 0 -21 18 -5 24 8
3 12 10 9 16 -4 6 -10 8 -14 5 -11 -6 -49 27 -51 45 -5 34 1 60 14 60 8 0 16
7 19 14 9 24 -24 6 -55 -28 -27 -31 -29 -49 -4 -40 8 3 16 -3 19 -15 6 -25
-18 -35 -38 -15 -8 9 -15 26 -15 39 0 18 -4 23 -15 19 -18 -7 -18 -4 -5 30 8
21 7 26 -6 26 -10 0 -14 -6 -11 -14 3 -8 -1 -20 -9 -26 -11 -10 -14 -9 -15 6
-1 11 -1 22 -1 25 2 12 -43 -4 -54 -19 -8 -11 -13 -12 -18 -3 -6 9 -11 9 -22
0 -8 -6 -18 -9 -22 -5 -4 4 2 14 12 22 19 14 19 14 -2 14 -12 0 -22 -3 -22 -7
0 -5 -11 -13 -24 -19 -21 -10 -23 -9 -18 4 4 12 0 14 -17 9 -20 -5 -22 -3 -16
16 12 39 5 80 -11 64 -4 -4 -1 -13 6 -22 11 -13 9 -15 -13 -15 -14 0 -32 -6
-39 -12 -16 -16 -52 -23 -44 -10 12 20 -60 127 -115 171 -21 18 -74 49 -117
69 -105 50 -193 56 -269 17z m387 -121 c0 14 40 -25 65 -64 26 -41 52 -116 70
-203 7 -34 22 -82 34 -107 18 -40 21 -43 27 -22 3 12 10 22 15 22 5 0 9 9 9
21 0 13 4 18 12 13 7 -4 8 -3 4 4 -4 7 -2 12 3 12 15 0 14 -13 -1 -29 -7 -7
-8 -11 -3 -10 19 5 93 -21 117 -41 22 -19 22 -21 -4 -24 -7 0 -14 -14 -16 -30
l-4 -28 22 20 c29 27 60 35 60 15 0 -8 -4 -12 -9 -8 -6 3 -14 -2 -20 -12 -7
-13 -4 -24 10 -42 25 -31 24 -60 -3 -70 -22 -8 -21 -9 9 -15 33 -8 73 -51 73
-79 0 -9 14 -16 40 -20 23 -3 47 -11 55 -17 19 -16 19 -49 0 -74 -20 -27 -19
-33 10 -52 24 -16 26 -15 48 8 l23 25 -22 28 c-27 34 -23 47 14 43 29 -3 53
-19 45 -30 -2 -4 7 -19 21 -32 13 -14 34 -43 47 -65 12 -22 26 -38 30 -35 5 3
6 -1 3 -9 -3 -8 2 -17 11 -21 10 -3 15 -12 11 -21 -3 -8 -1 -15 3 -15 5 0 20
-22 34 -50 14 -27 22 -50 17 -50 -4 0 -17 21 -28 48 l-21 47 -7 -33 c-5 -24
-18 -39 -50 -60 -30 -18 -46 -36 -50 -54 -4 -16 -9 -28 -11 -28 -3 0 -35 28
-71 61 -38 36 -89 72 -121 86 -88 38 -86 36 -83 82 4 64 -15 118 -73 207 -29
45 -74 124 -99 175 -48 97 -65 123 -47 76 9 -23 64 -142 78 -169 2 -5 1 -8 -4
-8 -4 0 -21 21 -37 46 -16 26 -61 79 -100 118 -45 45 -71 80 -72 96 -1 14 0
17 3 8 4 -16 6 -16 20 -3 9 10 12 22 7 33 -4 9 -6 20 -6 25 1 4 -3 7 -8 7 -5
0 -10 -6 -11 -12 0 -7 -5 -2 -10 11 -5 14 -7 31 -4 38 2 8 0 11 -5 8 -6 -3
-10 4 -10 17 0 16 3 19 9 10 4 -8 12 -14 17 -14 11 1 23 35 15 47 -3 6 -6 12
-7 15 0 3 -7 19 -14 35 -7 17 -14 37 -14 46 -1 21 -26 50 -37 43 -5 -3 -8 0
-7 7 2 7 -1 13 -7 14 -25 1 -35 16 -23 35 9 14 14 16 20 7 4 -7 8 -8 8 -3z
m-600 -114 c0 -5 -7 -7 -15 -4 -8 4 -15 8 -15 10 0 2 7 4 15 4 8 0 15 -4 15
-10z m20 -30 c0 -5 -11 -10 -24 -10 -14 0 -28 5 -31 10 -4 6 7 10 24 10 17 0
31 -4 31 -10z m853 -61 c-13 -5 -23 -15 -23 -23 0 -8 -7 -13 -17 -11 -10 2
-23 4 -28 4 -6 1 -15 9 -21 19 -10 16 -6 17 50 18 43 1 54 -1 39 -7z m95 -17
c2 -14 -2 -22 -12 -22 -10 0 -13 6 -9 16 3 9 0 20 -8 26 -11 7 -9 8 6 6 12 -2
21 -12 23 -26z m72 2 c0 -14 -3 -14 -15 -4 -8 7 -15 14 -15 16 0 2 7 4 15 4 8
0 15 -7 15 -16z m-150 -9 c0 -8 -7 -15 -16 -15 -14 0 -14 3 -4 15 7 8 14 15
16 15 2 0 4 -7 4 -15z m130 -11 c0 -8 -5 -12 -10 -9 -6 4 -8 11 -5 16 9 14 15
11 15 -7z m48 -23 c-5 -2 -15 2 -21 9 -9 10 -9 11 1 6 7 -5 12 -1 13 11 0 16
1 16 8 -2 5 -11 4 -22 -1 -24z m-1033 -19 c-2 -9 -4 -19 -5 -22 -1 -3 -2 -8
-2 -11 1 -3 -5 -6 -13 -6 -13 0 -10 21 6 43 5 6 5 15 1 19 -4 5 -2 5 5 2 6 -4
10 -15 8 -25z m825 18 c0 -5 -10 -10 -22 -10 -19 0 -20 2 -8 10 19 13 30 13
30 0z m114 -32 c-10 -16 -19 -7 -20 18 -2 23 -1 24 11 7 7 -10 11 -21 9 -25z
m-1039 13 c3 -5 1 -12 -5 -16 -5 -3 -10 1 -10 9 0 18 6 21 15 7z m972 -6 c8
-22 -6 -33 -17 -15 -13 20 -12 30 0 30 6 0 13 -7 17 -15z m-94 -9 l42 7 -19
-21 c-16 -18 -22 -20 -35 -9 -14 11 -14 10 -2 -6 10 -13 11 -21 3 -29 -16 -16
-46 10 -32 27 8 9 8 15 0 20 -5 3 -10 12 -9 18 0 9 2 9 6 0 3 -9 17 -11 46 -7z
m354 -18 c-3 -8 -6 -5 -6 6 -1 11 2 17 5 13 3 -3 4 -12 1 -19z m-1507 2 c-17
-5 -19 -8 -7 -9 9 -1 17 -5 17 -10 0 -4 -11 -6 -25 -3 -41 7 -30 33 14 31 l26
-1 -25 -8z m1425 1 c-3 -6 4 -15 15 -21 11 -6 18 -15 15 -21 -10 -15 -23 -10
-30 11 -4 11 -11 18 -16 15 -5 -3 -6 1 -3 9 3 9 10 16 16 16 5 0 7 -4 3 -9z
m-135 -16 c0 -8 -4 -15 -10 -15 -5 0 -10 -4 -10 -10 0 -5 3 -9 8 -9 20 3 32
-2 32 -16 0 -19 -2 -19 -44 6 -45 26 -38 49 17 58 4 0 7 -6 7 -14z m75 5 c3
-5 2 -10 -4 -10 -5 0 -13 5 -16 10 -3 6 -2 10 4 10 5 0 13 -4 16 -10z m-1288
-52 c-13 -21 -33 -24 -39 -6 -6 17 35 50 44 35 3 -5 1 -18 -5 -29z m274 13
c-9 -14 -18 -38 -19 -53 -1 -22 2 -26 20 -23 18 4 16 0 -11 -24 -17 -15 -31
-34 -31 -42 0 -8 -12 -25 -25 -38 -31 -29 -31 -26 0 41 14 29 25 49 25 45 0
-5 5 -5 11 -1 7 4 7 10 1 16 -17 17 10 105 33 105 11 0 10 -6 -4 -26z m639 13
c0 -8 -5 -12 -10 -9 -6 4 -8 11 -5 16 9 14 15 11 15 -7z m358 1 c25 -8 30 -25
7 -25 -8 0 -15 5 -15 10 0 6 -9 10 -20 10 -11 0 -20 4 -20 9 0 9 7 9 48 -4z
m142 -46 c0 -5 -7 -9 -15 -9 -8 0 -15 7 -15 15 0 9 6 12 15 9 8 -4 15 -10 15
-15z m-1580 -69 c0 -5 -5 -10 -11 -10 -5 0 -7 5 -4 10 3 6 8 10 11 10 2 0 4
-4 4 -10z m-140 -29 c0 -6 -4 -13 -10 -16 -5 -3 -10 1 -10 9 0 9 5 16 10 16 6
0 10 -4 10 -9z m84 -6 c3 -9 0 -15 -9 -15 -9 0 -12 6 -9 15 4 8 7 15 9 15 2 0
5 -7 9 -15z m-131 -69 c6 -16 -2 -28 -14 -20 -12 7 -11 34 0 34 5 0 11 -6 14
-14z m2007 -1 c0 -8 5 -15 10 -15 6 0 10 -3 10 -7 0 -5 -17 -8 -38 -9 -20 -1
-29 1 -19 3 9 3 17 13 17 24 0 10 5 19 10 19 6 0 10 -7 10 -15z m-65 -4 c3 -5
1 -12 -5 -16 -5 -3 -10 1 -10 9 0 18 6 21 15 7z m-1933 -36 c-2 -4 2 -12 10
-16 10 -7 10 -9 0 -9 -7 0 -23 9 -35 20 l-21 21 24 -4 c14 -2 23 -8 22 -12z
m2092 0 c4 -11 -1 -14 -20 -13 -23 2 -24 4 -8 15 22 16 21 16 28 -2z m-2024
-5 c0 -5 -4 -10 -10 -10 -5 0 -10 5 -10 10 0 6 5 10 10 10 6 0 10 -4 10 -10z
m1920 -38 c0 -9 6 -12 16 -8 14 6 15 4 4 -9 -12 -15 -14 -15 -22 -1 -5 9 -14
16 -19 16 -11 0 -39 25 -39 33 0 3 14 0 30 -6 17 -6 30 -18 30 -25z m-490 -2
c0 -5 -2 -10 -4 -10 -3 0 -8 5 -11 10 -3 6 -1 10 4 10 6 0 11 -4 11 -10z m565
0 c-3 -5 -1 -10 4 -10 12 0 15 -33 4 -43 -11 -12 -31 37 -20 51 11 14 21 16
12 2z m-35 -35 c0 -8 -4 -15 -10 -15 -5 0 -7 7 -4 15 4 8 8 15 10 15 2 0 4 -7
4 -15z m-2156 -20 c-4 -8 -10 -12 -15 -9 -14 8 -10 24 6 24 9 0 12 -6 9 -15z
m2064 -18 c2 -12 -1 -15 -12 -11 -19 7 -22 38 -3 32 6 -3 13 -12 15 -21z m100
-55 c2 -19 -1 -32 -8 -32 -6 0 -8 5 -5 10 3 6 1 10 -6 10 -6 0 -9 8 -6 20 4
15 0 20 -13 20 -10 0 -20 7 -24 15 -5 13 -1 13 27 2 25 -11 33 -20 35 -45z
m30 38 c10 -17 10 -20 -3 -20 -8 0 -15 2 -15 4 0 2 -3 11 -6 20 -9 23 9 20 24
-4z m71 -5 c3 -19 3 -19 -16 -2 -11 9 -23 14 -26 10 -4 -3 -7 -1 -7 6 0 21 44
8 49 -14z m1 -66 c0 -14 -17 -10 -23 5 -4 10 -1 13 9 9 7 -3 14 -9 14 -14z
m-77 -4 c4 -8 2 -17 -3 -20 -6 -4 -10 3 -10 14 0 25 6 27 13 6z m31 -14 c3 -5
-1 -14 -8 -20 -12 -10 -13 -8 -9 8 6 23 9 25 17 12z m105 -40 c8 -5 9 -11 3
-15 -5 -3 -15 1 -22 9 -14 16 -3 20 19 6z m-2409 -25 c0 -2 -7 -7 -16 -10 -8
-3 -12 -2 -9 4 6 10 25 14 25 6z m2334 -28 c12 -45 7 -54 -15 -31 -13 12 -19
28 -16 37 9 23 24 20 31 -6z m-2364 -22 c0 -11 -19 -15 -25 -6 -3 5 1 10 9 10
9 0 16 -2 16 -4z m1951 -77 c5 -11 14 -17 18 -15 4 3 13 -5 19 -18 10 -22 9
-23 -52 -22 l-61 1 20 41 c21 43 37 47 56 13z m449 10 c0 -4 -7 -6 -15 -3 -8
4 -15 10 -15 15 0 4 7 6 15 3 8 -4 15 -10 15 -15z m70 1 c0 -5 -4 -10 -10 -10
-5 0 -10 5 -10 10 0 6 5 10 10 10 6 0 10 -4 10 -10z m-29 -58 c-7 -12 -9 -5
-9 24 0 33 2 36 9 16 5 -14 5 -30 0 -40z m-31 4 c0 -8 -4 -18 -10 -21 -5 -3
-10 3 -10 14 0 12 5 21 10 21 6 0 10 -6 10 -14z m-308 -74 c36 -48 57 -99 34
-84 -6 4 -38 36 -71 72 -33 36 -49 56 -36 45 l24 -20 -5 22 c-9 33 13 19 54
-35z m246 18 c7 -12 17 -18 23 -14 6 3 5 -3 -3 -15 -14 -23 -30 -29 -22 -7 3
7 -2 16 -10 19 -9 4 -16 13 -16 22 0 21 13 19 28 -5z m72 10 c0 -5 -4 -10 -10
-10 -5 0 -10 5 -10 10 0 6 5 10 10 10 6 0 10 -4 10 -10z m-2425 -20 c3 -5 -1
-10 -10 -10 -9 0 -13 5 -10 10 3 6 8 10 10 10 2 0 7 -4 10 -10z m2345 -85 c0
-12 3 -16 8 -9 4 6 15 14 26 17 16 6 16 10 5 24 -13 15 -12 15 9 4 25 -13 29
-31 7 -31 -8 0 -15 -9 -15 -20 0 -13 7 -20 19 -20 10 0 21 -9 24 -20 3 -13 0
-20 -9 -20 -21 0 -17 -18 6 -25 27 -9 25 -24 -4 -35 -18 -7 -23 -14 -19 -29 5
-21 23 -29 23 -11 0 6 5 10 11 10 8 0 10 -12 6 -35 -3 -19 -1 -37 4 -40 5 -4
9 0 9 7 0 10 3 9 10 -2 5 -9 5 -19 -2 -27 -8 -10 -6 -13 6 -13 9 0 16 -7 16
-16 0 -8 4 -13 9 -10 5 3 14 -1 20 -8 10 -12 8 -13 -11 -9 l-23 6 20 -24 20
-24 -22 18 c-16 14 -34 18 -70 15 l-48 -3 -5 45 -5 44 -13 -28 c-12 -27 -15
-28 -64 -22 -29 4 -56 10 -61 13 -14 8 14 23 46 23 l27 0 0 134 c0 73 3 149 7
167 l7 34 12 -30 c7 -16 13 -39 14 -50z m120 49 c0 -8 -4 -14 -8 -14 -4 0 -8
9 -8 19 0 11 4 17 8 15 4 -3 8 -12 8 -20z m57 -1 c-3 -2 -14 0 -24 7 -16 10
-16 11 0 6 9 -3 17 0 18 7 0 8 2 8 6 -1 3 -7 3 -16 0 -19z m-42 -56 c11 4 13
1 9 -11 -3 -9 -8 -16 -10 -16 -8 0 -44 44 -44 54 0 6 7 1 15 -11 9 -13 22 -20
30 -16z m-2538 -41 c-3 -8 -17 -15 -30 -18 -18 -4 -24 -1 -20 9 3 7 8 13 12
13 4 0 14 12 21 28 14 27 14 27 18 4 2 -13 1 -29 -1 -36z m40 31 c-6 -20 -27
-19 -27 2 0 14 5 19 15 14 9 -3 14 -10 12 -16z m373 14 c0 -12 -37 -57 -43
-51 -2 3 -7 17 -11 33 -6 25 -4 27 24 27 16 0 30 -4 30 -9z m-490 -15 c0 -3
-4 -8 -10 -11 -5 -3 -10 -1 -10 4 0 6 5 11 10 11 6 0 10 -2 10 -4z m2700 -21
c0 -26 -23 -35 -36 -13 -5 8 -2 9 11 5 14 -6 16 -3 12 13 -3 11 -1 20 4 20 5
0 9 -11 9 -25z m-2701 -36 c-13 -26 -20 -21 -12 9 3 12 9 19 14 16 5 -3 4 -14
-2 -25z m91 1 c0 -5 -5 -10 -11 -10 -5 0 -7 5 -4 10 3 6 8 10 11 10 2 0 4 -4
4 -10z m415 -23 c0 -7 5 -12 12 -12 6 0 14 -2 17 -5 3 -4 -6 -6 -19 -6 -20 0
-25 5 -25 25 0 13 3 21 8 17 4 -4 7 -13 7 -19z m-482 2 c-6 -6 -9 -18 -6 -25
3 -8 0 -14 -6 -14 -15 0 -14 37 2 43 20 9 22 8 10 -4z m29 -11 c-7 -7 -12 -8
-12 -2 0 14 12 26 19 19 2 -3 -1 -11 -7 -17z m2568 -10 c0 -16 -3 -19 -11 -11
-6 6 -8 16 -5 22 11 17 16 13 16 -11z m-2645 -16 c-8 -8 -25 10 -19 20 4 6 9
5 15 -3 4 -7 6 -15 4 -17z m2646 -46 c-10 -25 -31 -36 -31 -16 0 6 4 10 9 10
5 0 13 9 16 21 4 11 9 19 11 16 3 -2 0 -16 -5 -31z m-2641 9 c0 -8 -6 -15 -14
-15 -17 0 -28 14 -19 24 12 12 33 6 33 -9z m110 6 c0 -6 -4 -13 -10 -16 -5 -3
-10 1 -10 9 0 9 5 16 10 16 6 0 10 -4 10 -9z m-81 -47 c-6 -8 -18 -14 -27 -14
-13 0 -12 3 4 19 21 21 41 17 23 -5z m59 -19 c3 -35 -15 -23 -20 15 -3 21 -1
27 7 20 6 -5 12 -21 13 -35z m2562 -6 c0 -5 -4 -9 -10 -9 -5 0 -10 7 -10 16 0
8 5 12 10 9 6 -3 10 -10 10 -16z m-2590 -15 c0 -8 -4 -14 -10 -14 -5 0 -10 9
-10 21 0 11 5 17 10 14 6 -3 10 -13 10 -21z m-43 -21 c-3 -10 -5 -4 -5 12 0
17 2 24 5 18 2 -7 2 -21 0 -30z m2345 -23 c3 -16 2 -30 -1 -31 -3 0 -15 -2
-26 -4 -10 -2 -35 0 -55 5 -29 7 -31 8 -9 9 14 1 36 12 49 26 30 32 37 31 42
-5z m-1872 6 c-18 -18 -11 -25 24 -22 18 1 42 -1 52 -5 18 -7 -10 -11 -71 -11
-47 0 -49 1 -32 20 10 10 15 21 12 24 -3 2 2 5 10 5 11 0 12 -4 5 -11z m2233
-10 c7 -17 -1 -26 -21 -26 -11 0 -12 3 -3 13 6 8 8 17 4 20 -3 4 -2 7 4 7 6 0
13 -6 16 -14z m-2062 -34 c-7 -2 -18 1 -23 6 -8 8 -4 9 13 5 13 -4 18 -8 10
-11z m2140 -21 c-8 -48 -26 -49 -27 -2 -1 31 2 39 15 38 14 -1 16 -8 12 -36z
m39 29 c0 -5 -5 -10 -11 -10 -5 0 -7 5 -4 10 3 6 8 10 11 10 2 0 4 -4 4 -10z
m-113 -57 c7 4 10 -3 9 -18 l-1 -24 -27 26 c-15 14 -25 30 -22 35 3 5 12 1 18
-8 7 -9 18 -14 23 -11z m52 -77 c15 -18 15 -18 -6 -5 -13 8 -23 23 -22 34 0
14 2 16 6 5 3 -8 13 -24 22 -34z m-3111 -27 c2 -19 -3 -28 -23 -37 -58 -27
-125 -3 -125 44 0 24 1 25 73 22 69 -3 72 -4 75 -29z m442 11 c0 -6 -30 -10
-70 -10 -40 0 -70 4 -70 10 0 6 30 10 70 10 40 0 70 -4 70 -10z m2250 -55 l0
-65 -72 1 c-52 1 -65 3 -43 8 17 4 37 7 45 5 14 -2 45 23 45 36 0 3 4 4 9 2 5
-2 3 5 -5 14 -12 16 -12 17 1 10 8 -4 5 1 -7 12 -23 20 -32 39 -13 27 6 -3 10
-1 10 4 0 6 7 11 15 11 12 0 15 -14 15 -65z m306 -122 c-10 -10 -19 5 -10 18
6 11 8 11 12 0 2 -7 1 -15 -2 -18z m-2691 -43 c3 -5 1 -10 -4 -10 -6 0 -11 5
-11 10 0 6 2 10 4 10 3 0 8 -4 11 -10z m125 1 c0 -6 -4 -13 -10 -16 -5 -3 -10
1 -10 9 0 9 5 16 10 16 6 0 10 -4 10 -9z m2398 -25 c-1 -14 -7 -24 -13 -23 -5
1 -9 -4 -7 -11 1 -8 -2 -11 -8 -7 -6 4 -9 -4 -8 -19 2 -22 4 -24 18 -11 24 21
46 -2 25 -25 -14 -15 -13 -17 7 -16 17 1 24 -5 26 -24 4 -25 4 -25 -15 -5 -23
26 -45 26 -58 -1 -15 -29 -31 -9 -33 40 -2 44 -12 63 -12 23 0 -15 -5 -26 -12
-24 -8 1 -11 -13 -9 -45 1 -27 -1 -48 -6 -48 -5 0 -9 -10 -10 -22 -1 -12 -9
-28 -18 -37 -14 -14 -16 -14 -13 -1 2 8 -3 14 -10 12 -8 -1 -11 2 -8 7 4 5 2
12 -3 15 -5 3 -6 21 -1 40 4 19 5 38 1 42 -3 4 -1 5 4 1 6 -3 15 6 22 19 8 18
8 22 0 17 -7 -4 -6 1 2 10 7 9 11 23 8 32 -4 8 -2 17 4 20 5 4 6 12 2 18 -4 7
0 6 10 -2 9 -7 17 -21 17 -30 0 -13 2 -14 9 -1 6 8 7 18 4 23 -8 14 5 37 19
32 9 -4 12 -20 10 -50 -3 -31 1 -49 12 -60 14 -14 16 -14 16 -1 0 8 -4 18 -10
21 -15 9 -12 51 5 65 9 7 13 15 10 18 -5 5 13 32 21 32 2 0 3 -11 2 -24z m30
-31 c-3 -28 -6 -29 -28 -15 -13 8 -13 10 2 10 12 0 15 6 10 22 -3 14 -1 19 6
14 7 -4 11 -18 10 -31z m-2108 4 c0 -5 -4 -9 -10 -9 -5 0 -10 7 -10 16 0 8 5
12 10 9 6 -3 10 -10 10 -16z m0 -53 c16 -43 23 -96 12 -96 -15 0 -55 88 -48
105 8 22 25 18 36 -9z m2162 -61 c-4 -34 -22 -50 -22 -19 0 14 17 54 23 54 2
0 1 -16 -1 -35z m-2347 -25 c-3 -5 9 -19 27 -30 28 -17 30 -20 11 -20 -12 0
-30 -3 -40 -7 -15 -6 -16 -4 -6 8 7 9 8 20 3 29 -8 13 -5 30 6 30 3 0 2 -4 -1
-10z m2245 -47 c0 -8 4 -12 8 -9 5 3 9 -2 9 -11 0 -13 -4 -12 -18 5 -9 12 -22
22 -29 22 -6 0 -9 4 -5 10 8 13 35 1 35 -17z m-68 -35 c-8 -8 -9 -4 -5 13 4
13 8 18 11 10 2 -7 -1 -18 -6 -23z m48 1 c0 -5 -4 -9 -8 -9 -5 0 -9 7 -9 15 0
8 4 12 9 9 4 -3 8 -9 8 -15z m-1985 -9 c3 -5 1 -10 -4 -10 -6 0 -11 5 -11 10
0 6 2 10 4 10 3 0 8 -4 11 -10z m1810 -9 c3 -5 1 -12 -5 -16 -5 -3 -10 1 -10
9 0 18 6 21 15 7z m211 -36 c10 -8 14 -15 7 -15 -19 0 -43 11 -43 21 0 13 14
11 36 -6z m-236 -45 c0 -5 10 -10 23 -11 12 0 16 -3 10 -6 -17 -6 -16 -20 0
-26 7 -3 19 4 26 15 7 11 8 17 2 13 -6 -3 -11 0 -11 9 0 15 16 16 37 3 8 -5 4
-15 -14 -35 -27 -29 -41 -34 -61 -19 -9 7 -11 6 -6 -6 7 -18 -10 -38 -60 -72
l-32 -22 -2 23 c-1 18 3 22 18 19 11 -2 18 0 15 4 -2 5 2 14 10 21 8 7 15 19
15 27 0 8 5 11 11 7 7 -4 9 1 7 12 -2 11 -10 18 -18 16 -10 -2 -11 0 -2 11 7
8 9 17 5 20 -3 4 1 7 10 7 10 0 17 -4 17 -10z m-2010 -10 c0 -5 -2 -10 -4 -10
-3 0 -8 5 -11 10 -3 6 -1 10 4 10 6 0 11 -4 11 -10z m157 -25 c-11 -8 -25 -11
-33 -8 -10 4 -12 0 -8 -11 3 -9 10 -13 15 -10 5 3 9 1 9 -4 0 -6 -7 -13 -16
-16 -8 -3 -13 -2 -9 3 3 5 0 11 -6 13 -7 2 -9 13 -5 26 4 12 12 20 17 17 5 -4
17 -2 26 4 25 13 32 2 10 -14z m2008 16 c-3 -5 -1 -12 4 -15 15 -9 0 -46 -18
-46 -12 0 -13 2 -3 9 19 11 17 22 -4 34 -17 10 -17 11 1 18 27 10 27 10 20 0z
m-215 -22 c0 -5 -7 -9 -15 -9 -9 0 -18 -7 -21 -15 -4 -8 -10 -12 -16 -9 -5 3
0 17 13 30 21 22 39 24 39 3z m253 -4 c-3 -9 -8 -14 -10 -11 -3 3 -2 9 2 15 9
16 15 13 8 -4z m-2006 -25 c-3 -21 -17 -40 -17 -22 0 13 11 42 16 42 2 0 3 -9
1 -20z m1886 -17 c8 -7 -11 -33 -24 -33 -5 0 -9 9 -9 20 0 19 20 27 33 13z
m114 -15 c-3 -8 -6 -5 -6 6 -1 11 2 17 5 13 3 -3 4 -12 1 -19z m-177 -35 c-1
-18 -29 -43 -46 -42 -16 0 -16 2 4 9 12 5 22 16 22 25 0 8 5 15 10 15 6 0 10
-3 10 -7z m-112 -29 c0 -18 -3 -22 -9 -13 -8 13 -13 5 -10 -14 1 -5 -3 -6 -8
-3 -5 3 -12 -1 -15 -10 -5 -12 -2 -15 9 -10 9 3 13 2 10 -4 -9 -14 -31 -12
-44 4 -10 11 -8 19 5 34 9 11 22 18 29 16 7 -3 15 2 18 10 9 23 15 19 15 -10z
m172 -4 c0 -5 -8 -10 -17 -10 -15 0 -16 2 -3 10 19 12 20 12 20 0z m-130 -25
c0 -8 -4 -15 -9 -15 -13 0 -22 16 -14 24 11 11 23 6 23 -9z m-136 -10 c5 0 11
-6 14 -12 2 -7 -4 -13 -13 -13 -12 0 -14 -4 -5 -19 5 -11 10 -23 10 -26 0 -12
-25 1 -26 13 -3 23 -4 24 -19 12 -8 -7 -12 -16 -9 -21 3 -5 -11 -9 -32 -9 -31
0 -36 -3 -31 -19 3 -12 -4 -28 -18 -41 -21 -20 -23 -20 -22 -3 1 12 -6 19 -22
21 -13 2 -21 -1 -17 -6 9 -15 -15 -28 -59 -31 -22 -2 -44 -6 -50 -10 -5 -4
-31 -15 -57 -25 -47 -17 -68 -49 -28 -41 21 4 27 -9 9 -20 -5 -4 -18 0 -27 8
-20 18 -122 20 -119 3 3 -15 -25 -15 -50 1 -26 15 -37 17 -28 4 3 -5 1 -12 -4
-15 -5 -4 -12 -2 -16 4 -8 13 -28 2 -22 -14 2 -6 0 -20 -5 -31 -8 -18 -8 -18
-4 3 2 12 -1 22 -6 22 -6 0 -5 6 2 15 11 13 8 15 -14 15 -17 0 -26 5 -26 16 0
8 4 13 9 10 5 -4 11 -2 13 4 1 5 50 12 108 15 93 5 145 10 145 15 0 1 13 4 28
6 21 4 27 2 21 -7 -4 -8 -3 -9 5 -5 6 4 9 12 6 17 -4 5 0 11 7 13 134 37 141
41 113 70 -11 10 -12 17 -4 22 6 3 14 2 18 -3 13 -20 62 -34 72 -20 3 5 12 9
20 10 23 4 39 17 39 33 0 8 -4 13 -9 9 -5 -3 -12 -1 -16 5 -10 16 21 12 35 -5
15 -18 30 -11 30 15 0 20 19 31 35 21 6 -3 14 -6 19 -6z m70 -68 c-8 -4 -14
-15 -14 -22 0 -17 -7 -18 -35 -4 -19 9 -18 9 3 5 14 -3 22 1 22 10 0 8 -6 14
-12 15 -10 0 -10 2 0 6 6 2 10 8 7 13 -3 4 6 3 19 -3 20 -9 22 -14 10 -20z
m-109 -45 c-8 -2 -15 -14 -15 -26 0 -13 -6 -23 -15 -23 -9 0 -14 9 -13 24 1
13 8 23 15 23 8 0 16 7 20 16 5 13 7 13 14 2 6 -8 3 -14 -6 -16z m57 -14 c-7
-7 -12 -8 -12 -2 0 14 12 26 19 19 2 -3 -1 -11 -7 -17z m-637 1 c-34 -5 -86
-5 -120 0 -54 8 -48 9 60 9 107 0 114 -1 60 -9z m-167 -22 c37 -1 42 -4 42
-24 0 -16 6 -23 19 -23 14 0 19 -7 19 -27 0 -16 -2 -32 -5 -36 -6 -11 -43 22
-43 39 0 15 -26 12 -42 -4 -14 -14 -42 -16 -33 -2 3 6 -1 7 -10 4 -8 -4 -27 1
-41 11 -30 19 -42 14 -19 -8 11 -12 12 -18 3 -23 -6 -4 -14 -2 -16 4 -2 7 -11
12 -19 12 -12 0 -13 3 -4 13 6 8 8 17 4 20 -3 4 1 7 10 7 10 0 17 6 17 13 0
23 24 39 50 32 14 -3 44 -7 68 -8z m162 -15 c0 -5 -7 -9 -15 -9 -8 0 -15 4
-15 9 0 4 7 8 15 8 8 0 15 -4 15 -8z m601 -15 c-10 -9 -11 -8 -5 6 3 10 9 15
12 12 3 -3 0 -11 -7 -18z m-221 3 c-8 -5 -19 -10 -25 -10 -5 0 -3 5 5 10 8 5
20 10 25 10 6 0 3 -5 -5 -10z m80 -10 c0 -5 -2 -10 -4 -10 -3 0 -8 5 -11 10
-3 6 -1 10 4 10 6 0 11 -4 11 -10z m180 0 c-12 -8 -12 -10 -1 -10 11 0 11 -3
1 -15 -8 -9 -17 -12 -22 -7 -13 13 2 42 21 42 14 0 14 -2 1 -10z m-1090 -11
c0 -5 5 -7 10 -4 6 3 10 1 10 -4 0 -15 -13 -14 -36 4 -17 13 -17 14 -1 15 9 0
17 -5 17 -11z m1024 -4 c3 -8 1 -15 -4 -15 -6 0 -10 7 -10 15 0 8 2 15 4 15 2
0 6 -7 10 -15z m-224 1 c0 -3 -4 -8 -10 -11 -5 -3 -10 -1 -10 4 0 6 5 11 10
11 6 0 10 -2 10 -4z m-181 -52 c6 4 11 3 11 -3 0 -5 -5 -13 -10 -16 -12 -7
-42 20 -33 29 4 3 10 1 14 -5 4 -6 12 -8 18 -5z m-659 -24 c0 -5 -5 -10 -11
-10 -5 0 -7 5 -4 10 3 6 8 10 11 10 2 0 4 -4 4 -10z m385 -10 c3 -5 -1 -10 -9
-10 -9 0 -16 5 -16 10 0 6 4 10 9 10 6 0 13 -4 16 -10z m452 4 c-3 -3 -12 -4
-19 -1 -8 3 -5 6 6 6 11 1 17 -2 13 -5z m-337 -36 c0 -16 -3 -19 -11 -11 -6 6
-8 16 -5 22 11 17 16 13 16 -11z m-280 8 c0 -3 -4 -8 -10 -11 -5 -3 -10 -1
-10 4 0 6 5 11 10 11 6 0 10 -2 10 -4z m143 -9 c7 4 8 0 4 -11 -4 -10 -7 -20
-7 -22 0 -2 -4 -4 -10 -4 -5 0 -10 12 -9 28 0 15 3 21 6 14 2 -6 10 -9 16 -5z"/>
<path d="M2368 3653 c7 -3 16 -2 19 1 4 3 -2 6 -13 5 -11 0 -14 -3 -6 -6z"/>
<path d="M3270 2401 c0 -5 5 -13 10 -16 6 -3 10 -2 10 4 0 5 -4 13 -10 16 -5
3 -10 2 -10 -4z"/>
<path d="M3340 2170 c0 -5 5 -10 11 -10 5 0 7 5 4 10 -3 6 -8 10 -11 10 -2 0
-4 -4 -4 -10z"/>
<path d="M2010 1020 c0 -5 4 -10 9 -10 6 0 13 5 16 10 3 6 -1 10 -9 10 -9 0
-16 -4 -16 -10z"/>
<path d="M1650 3776 c0 -9 -4 -16 -10 -16 -5 0 -10 -4 -10 -10 0 -16 14 -11
27 10 8 12 9 21 3 25 -6 3 -10 -1 -10 -9z"/>
<path d="M1740 3740 c0 -5 5 -10 10 -10 6 0 10 5 10 10 0 6 -4 10 -10 10 -5 0
-10 -4 -10 -10z"/>
<path d="M3055 3740 c3 -5 8 -10 11 -10 2 0 4 5 4 10 0 6 -5 10 -11 10 -5 0
-7 -4 -4 -10z"/>
<path d="M2395 3730 c3 -5 8 -10 11 -10 2 0 4 5 4 10 0 6 -5 10 -11 10 -5 0
-7 -4 -4 -10z"/>
<path d="M2566 3715 c-3 -8 -1 -15 4 -15 6 0 10 7 10 15 0 8 -2 15 -4 15 -2 0
-6 -7 -10 -15z"/>
<path d="M1770 3689 c0 -5 5 -7 10 -4 6 3 10 8 10 11 0 2 -4 4 -10 4 -5 0 -10
-5 -10 -11z"/>
<path d="M2555 3681 c-3 -6 4 -15 15 -21 22 -12 23 -10 14 14 -7 18 -20 21
-29 7z"/>
<path d="M1710 3670 c0 -5 5 -10 11 -10 5 0 7 5 4 10 -3 6 -8 10 -11 10 -2 0
-4 -4 -4 -10z"/>
<path d="M1785 3670 c-3 -5 -2 -10 4 -10 5 0 13 5 16 10 3 6 2 10 -4 10 -5 0
-13 -4 -16 -10z"/>
<path d="M995 3660 c3 -5 8 -10 11 -10 2 0 4 5 4 10 0 6 -5 10 -11 10 -5 0 -7
-4 -4 -10z"/>
<path d="M2748 3663 c6 -2 18 -2 25 0 6 3 1 5 -13 5 -14 0 -19 -2 -12 -5z"/>
<path d="M1575 3650 c3 -5 8 -10 11 -10 2 0 4 5 4 10 0 6 -5 10 -11 10 -5 0
-7 -4 -4 -10z"/>
<path d="M2505 3640 c3 -5 8 -10 11 -10 2 0 4 5 4 10 0 6 -5 10 -11 10 -5 0
-7 -4 -4 -10z"/>
<path d="M2680 3611 c0 -6 5 -13 10 -16 6 -3 10 1 10 9 0 9 -4 16 -10 16 -5 0
-10 -4 -10 -9z"/>
<path d="M800 3590 c0 -5 5 -10 11 -10 5 0 7 5 4 10 -3 6 -8 10 -11 10 -2 0
-4 -4 -4 -10z"/>
<path d="M1567 3584 c3 -7 9 -14 14 -14 14 0 10 17 -5 23 -10 4 -13 1 -9 -9z"/>
<path d="M2654 3576 c5 -20 3 -23 -14 -19 -14 4 -20 0 -20 -10 0 -21 21 -26
40 -9 18 15 16 62 -2 62 -6 0 -7 -11 -4 -24z"/>
<path d="M2810 3590 c-9 -6 -10 -10 -3 -10 6 0 15 5 18 10 8 12 4 12 -15 0z"/>
<path d="M1096 3583 c-11 -11 -6 -23 9 -23 8 0 15 4 15 9 0 13 -16 22 -24 14z"/>
<path d="M1640 3581 c-8 -6 -17 -8 -20 -6 -4 2 -7 -2 -7 -9 0 -10 6 -10 24 -2
12 6 23 14 23 19 0 9 -2 9 -20 -2z"/>
<path d="M2490 3580 c-13 -8 -12 -10 3 -10 9 0 20 0 24 -1 4 0 9 4 11 10 5 14
-18 14 -38 1z"/>
<path d="M1567 3536 c-10 -8 -15 -16 -10 -19 4 -2 17 4 27 14 22 22 10 25 -17
5z"/>
<path d="M1598 3526 c-23 -17 -23 -26 -1 -26 9 0 25 -7 35 -17 10 -9 18 -11
18 -6 0 6 -7 14 -16 17 -10 4 -13 13 -9 26 7 23 -2 25 -27 6z"/>
<path d="M1410 3481 c0 -6 5 -13 10 -16 6 -3 10 1 10 9 0 9 -4 16 -10 16 -5 0
-10 -4 -10 -9z"/>
<path d="M2971 3434 c0 -11 3 -14 6 -6 3 7 2 16 -1 19 -3 4 -6 -2 -5 -13z"/>
<path d="M3018 3443 c7 -3 16 -2 19 1 4 3 -2 6 -13 5 -11 0 -14 -3 -6 -6z"/>
<path d="M3040 3414 c0 -2 9 -8 20 -14 11 -6 20 -7 20 -2 0 6 -9 12 -20 15
-11 3 -20 3 -20 1z"/>
<path d="M1325 3390 c3 -5 11 -10 16 -10 6 0 7 5 4 10 -3 6 -11 10 -16 10 -6
0 -7 -4 -4 -10z"/>
<path d="M3340 3390 c0 -5 5 -10 11 -10 5 0 7 5 4 10 -3 6 -8 10 -11 10 -2 0
-4 -4 -4 -10z"/>
<path d="M1260 3380 c0 -5 5 -10 10 -10 6 0 10 5 10 10 0 6 -4 10 -10 10 -5 0
-10 -4 -10 -10z"/>
<path d="M1588 3369 c-20 -21 -24 -49 -8 -49 6 0 10 9 10 20 0 11 6 20 13 20
8 0 14 7 14 15 0 19 -8 18 -29 -6z"/>
<path d="M3106 3373 c-6 -14 -5 -15 5 -6 7 7 10 15 7 18 -3 3 -9 -2 -12 -12z"/>
<path d="M3210 3381 c0 -12 39 -21 45 -11 3 4 -2 11 -11 14 -22 8 -34 7 -34
-3z"/>
<path d="M1312 3363 c-6 -3 -10 -9 -7 -13 3 -5 12 -7 20 -4 8 4 15 -3 18 -18
4 -21 4 -21 6 -2 1 24 -18 44 -37 37z"/>
<path d="M1656 3338 c3 -5 10 -6 15 -3 13 9 11 12 -6 12 -8 0 -12 -4 -9 -9z"/>
<path d="M1300 3315 c0 -9 5 -15 11 -13 6 2 11 8 11 13 0 5 -5 11 -11 13 -6 2
-11 -4 -11 -13z"/>
<path d="M1080 3310 c19 -13 30 -13 30 0 0 6 -10 10 -22 10 -19 0 -20 -2 -8
-10z"/>
<path d="M1646 3301 c-7 -11 18 -33 27 -24 4 3 7 12 7 20 0 15 -26 18 -34 4z"/>
<path d="M1235 3290 c-3 -5 -1 -10 4 -10 6 0 11 5 11 10 0 6 -2 10 -4 10 -3 0
-8 -4 -11 -10z"/>
<path d="M1560 3262 c0 -14 11 -21 26 -15 21 8 17 23 -6 23 -11 0 -20 -4 -20
-8z"/>
<path d="M3390 3260 c0 -5 5 -10 10 -10 6 0 10 5 10 10 0 6 -4 10 -10 10 -5 0
-10 -4 -10 -10z"/>
<path d="M710 3249 c0 -5 5 -7 10 -4 6 3 10 8 10 11 0 2 -4 4 -10 4 -5 0 -10
-5 -10 -11z"/>
<path d="M885 3250 c3 -5 8 -10 11 -10 2 0 4 5 4 10 0 6 -5 10 -11 10 -5 0 -7
-4 -4 -10z"/>
<path d="M3276 3244 c-17 -12 -17 -14 -4 -14 9 0 20 5 23 11 11 17 2 18 -19 3z"/>
<path d="M1140 3243 c0 -4 5 -15 10 -23 8 -13 10 -13 10 2 0 9 -4 20 -10 23
-5 3 -10 3 -10 -2z"/>
<path d="M3181 3234 c0 -11 3 -14 6 -6 3 7 2 16 -1 19 -3 4 -6 -2 -5 -13z"/>
<path d="M1415 3232 c-6 -6 4 -22 15 -22 4 0 10 6 13 13 5 13 -17 20 -28 9z"/>
<path d="M3204 3226 c-10 -26 -1 -38 20 -23 16 12 16 14 2 26 -13 11 -17 11
-22 -3z"/>
<path d="M1495 3220 c4 -6 11 -8 16 -5 14 9 11 15 -7 15 -8 0 -12 -5 -9 -10z"/>
<path d="M985 3210 c3 -5 8 -10 11 -10 2 0 4 5 4 10 0 6 -5 10 -11 10 -5 0 -7
-4 -4 -10z"/>
<path d="M1506 3194 c-11 -7 -29 -11 -43 -8 -16 4 -25 1 -29 -11 -10 -24 16
-38 37 -19 8 8 18 12 21 9 3 -3 13 4 23 15 22 25 17 33 -9 14z"/>
<path d="M3336 3184 c-11 -8 -16 -14 -10 -14 13 0 39 18 34 24 -3 2 -14 -2
-24 -10z"/>
<path d="M870 3171 c0 -6 4 -13 10 -16 6 -3 7 1 4 9 -7 18 -14 21 -14 7z"/>
<path d="M970 3146 c0 -9 5 -16 10 -16 6 0 10 4 10 9 0 6 -4 13 -10 16 -5 3
-10 -1 -10 -9z"/>
<path d="M1040 3125 c-14 -8 -23 -15 -20 -15 3 -1 18 -3 33 -5 22 -3 26 -1 18
9 -6 7 -8 16 -4 19 10 11 0 8 -27 -8z"/>
<path d="M3400 3094 c0 -8 5 -12 10 -9 6 4 8 11 5 16 -9 14 -15 11 -15 -7z"/>
<path d="M3318 3063 c7 -3 16 -2 19 1 4 3 -2 6 -13 5 -11 0 -14 -3 -6 -6z"/>
<path d="M575 2980 c3 -5 8 -10 11 -10 2 0 4 5 4 10 0 6 -5 10 -11 10 -5 0 -7
-4 -4 -10z"/>
<path d="M3370 2980 c0 -5 5 -10 10 -10 6 0 10 5 10 10 0 6 -4 10 -10 10 -5 0
-10 -4 -10 -10z"/>
<path d="M720 2929 c0 -5 5 -7 10 -4 6 3 10 8 10 11 0 2 -4 4 -10 4 -5 0 -10
-5 -10 -11z"/>
<path d="M821 2917 c-9 -11 -8 -17 3 -26 10 -9 16 -9 21 -1 4 7 18 9 31 6 14
-4 24 -2 24 4 0 5 -10 10 -23 10 -13 0 -28 5 -33 10 -8 8 -14 7 -23 -3z"/>
<path d="M3377 2913 c-4 -3 -7 -15 -7 -25 0 -11 -4 -16 -10 -13 -5 3 -10 1
-10 -5 0 -7 8 -9 21 -5 14 5 25 2 30 -6 14 -23 10 6 -4 35 -8 14 -17 23 -20
19z"/>
<path d="M670 2900 c0 -5 5 -10 10 -10 6 0 10 5 10 10 0 6 -4 10 -10 10 -5 0
-10 -4 -10 -10z"/>
<path d="M784 2839 c-3 -6 -1 -16 5 -22 8 -8 11 -6 11 7 0 12 5 16 16 12 8 -3
12 -2 9 4 -8 13 -32 13 -41 -1z"/>
<path d="M3380 2829 c0 -5 5 -7 10 -4 6 3 10 8 10 11 0 2 -4 4 -10 4 -5 0 -10
-5 -10 -11z"/>
<path d="M3410 2824 c0 -8 5 -12 10 -9 6 3 10 10 10 16 0 5 -4 9 -10 9 -5 0
-10 -7 -10 -16z"/>
<path d="M895 2820 c4 -6 11 -8 16 -5 14 9 11 15 -7 15 -8 0 -12 -5 -9 -10z"/>
<path d="M1056 2792 c-3 -6 -1 -14 5 -17 15 -10 25 3 12 16 -7 7 -13 7 -17 1z"/>
<path d="M3442 2788 c2 -6 11 -12 20 -14 11 -1 15 3 11 12 -6 17 -36 19 -31 2z"/>
<path d="M520 2780 c0 -5 5 -10 11 -10 5 0 7 5 4 10 -3 6 -8 10 -11 10 -2 0
-4 -4 -4 -10z"/>
<path d="M3508 2752 c-10 -2 -18 -8 -18 -13 0 -13 27 -11 35 2 9 13 4 16 -17
11z"/>
<path d="M3520 2714 c0 -3 7 -12 15 -20 16 -17 18 -14 9 10 -6 15 -24 23 -24
10z"/>
<path d="M1091 2686 c-7 -8 -8 -17 -3 -20 6 -3 12 3 15 14 6 24 4 25 -12 6z"/>
<path d="M750 2660 c0 -18 3 -19 20 -10 22 12 18 30 -6 30 -8 0 -14 -9 -14
-20z"/>
<path d="M3650 2664 c0 -8 5 -12 10 -9 6 4 8 11 5 16 -9 14 -15 11 -15 -7z"/>
<path d="M700 2650 c0 -5 5 -10 10 -10 6 0 10 5 10 10 0 6 -4 10 -10 10 -5 0
-10 -4 -10 -10z"/>
<path d="M3503 2627 c0 -7 11 -21 25 -31 24 -18 24 -18 14 1 -16 28 -39 46
-39 30z"/>
<path d="M730 2610 c0 -5 5 -10 11 -10 5 0 7 5 4 10 -3 6 -8 10 -11 10 -2 0
-4 -4 -4 -10z"/>
<path d="M3672 2591 c13 -22 28 -28 28 -11 0 5 -9 14 -20 20 -19 10 -20 10 -8
-9z"/>
<path d="M3501 2584 c0 -11 3 -14 6 -6 3 7 2 16 -1 19 -3 4 -6 -2 -5 -13z"/>
<path d="M995 2570 c-8 -13 9 -20 24 -11 10 6 9 10 -3 14 -8 3 -18 2 -21 -3z"/>
<path d="M3525 2559 c-4 -6 -5 -12 -2 -15 2 -3 7 2 10 11 7 17 1 20 -8 4z"/>
<path d="M610 2550 c0 -5 5 -10 11 -10 5 0 7 5 4 10 -3 6 -8 10 -11 10 -2 0
-4 -4 -4 -10z"/>
<path d="M711 2533 c0 -12 -4 -30 -7 -40 -5 -14 -4 -15 5 -7 7 6 11 24 8 40
-3 21 -4 23 -6 7z"/>
<path d="M500 2516 c0 -9 5 -16 10 -16 6 0 10 4 10 9 0 6 -4 13 -10 16 -5 3
-10 -1 -10 -9z"/>
<path d="M740 2515 c-7 -8 -8 -15 -2 -15 5 0 15 7 22 15 7 8 8 15 2 15 -5 0
-15 -7 -22 -15z"/>
<path d="M967 2503 c-13 -12 -7 -23 13 -23 11 0 20 7 20 15 0 15 -21 21 -33 8z"/>
<path d="M3550 2487 c0 -24 16 -29 31 -9 7 9 9 14 5 10 -5 -4 -15 -3 -23 3
-10 9 -13 8 -13 -4z"/>
<path d="M3870 2490 c0 -5 5 -10 10 -10 6 0 10 5 10 10 0 6 -4 10 -10 10 -5 0
-10 -4 -10 -10z"/>
<path d="M995 2417 c-27 -16 -32 -53 -6 -53 14 0 20 9 23 33 2 18 4 33 3 32 0
-1 -9 -6 -20 -12z"/>
<path d="M3562 2418 c-13 -13 -16 -48 -4 -48 4 0 13 14 19 30 12 31 6 39 -15
18z"/>
<path d="M3698 2363 c7 -3 16 -2 19 1 4 3 -2 6 -13 5 -11 0 -14 -3 -6 -6z"/>
<path d="M580 2329 c0 -5 5 -7 10 -4 6 3 10 8 10 11 0 2 -4 4 -10 4 -5 0 -10
-5 -10 -11z"/>
<path d="M3511 2164 c0 -11 3 -14 6 -6 3 7 2 16 -1 19 -3 4 -6 -2 -5 -13z"/>
<path d="M3477 1683 c-9 -15 17 -23 34 -11 11 8 11 9 -3 5 -9 -3 -18 -1 -21 6
-2 8 -5 8 -10 0z"/>
<path d="M3586 1682 c-3 -5 1 -9 9 -9 8 0 12 4 9 9 -3 4 -7 8 -9 8 -2 0 -6 -4
-9 -8z"/>
<path d="M3542 1640 c0 -14 2 -19 5 -12 2 6 2 18 0 25 -3 6 -5 1 -5 -13z"/>
<path d="M3500 1639 c0 -5 5 -7 10 -4 6 3 10 8 10 11 0 2 -4 4 -10 4 -5 0 -10
-5 -10 -11z"/>
<path d="M646 1611 c-4 -7 -5 -15 -2 -18 9 -9 19 4 14 18 -4 11 -6 11 -12 0z"/>
<path d="M3390 1602 c0 -6 5 -14 11 -17 6 -4 14 -17 19 -29 9 -21 9 -21 9 0 1
11 -8 29 -19 39 -11 10 -20 13 -20 7z"/>
<path d="M3430 1600 c0 -5 7 -10 16 -10 8 0 12 5 9 10 -3 6 -10 10 -16 10 -5
0 -9 -4 -9 -10z"/>
<path d="M3450 1519 c0 -5 5 -7 10 -4 6 3 10 8 10 11 0 2 -4 4 -10 4 -5 0 -10
-5 -10 -11z"/>
<path d="M3514 1505 c-18 -14 -18 -14 4 -8 12 3 22 9 22 14 0 12 -3 11 -26 -6z"/>
<path d="M815 1500 c3 -5 8 -10 11 -10 2 0 4 5 4 10 0 6 -5 10 -11 10 -5 0 -7
-4 -4 -10z"/>
<path d="M904 1491 c4 -5 3 -11 -1 -14 -5 -2 -2 -2 5 -1 7 2 16 -6 21 -18 5
-13 10 -17 15 -10 3 6 -1 20 -11 32 -17 20 -39 29 -29 11z"/>
<path d="M1100 1490 c0 -5 5 -10 11 -10 5 0 7 5 4 10 -3 6 -8 10 -11 10 -2 0
-4 -4 -4 -10z"/>
<path d="M3350 1476 c-6 -9 -10 -21 -7 -28 4 -9 6 -7 6 4 1 9 7 18 14 21 6 2
9 7 6 11 -3 4 -12 0 -19 -8z"/>
<path d="M3400 1465 c-7 -8 -8 -15 -2 -15 5 0 15 7 22 15 7 8 8 15 2 15 -5 0
-15 -7 -22 -15z"/>
<path d="M650 1450 c0 -5 5 -10 11 -10 5 0 7 5 4 10 -3 6 -8 10 -11 10 -2 0
-4 -4 -4 -10z"/>
<path d="M3360 1450 c0 -5 5 -10 11 -10 5 0 7 5 4 10 -3 6 -8 10 -11 10 -2 0
-4 -4 -4 -10z"/>
<path d="M880 1440 c0 -5 5 -10 10 -10 6 0 10 5 10 10 0 6 -4 10 -10 10 -5 0
-10 -4 -10 -10z"/>
<path d="M3400 1410 c0 -5 5 -10 10 -10 6 0 10 5 10 10 0 6 -4 10 -10 10 -5 0
-10 -4 -10 -10z"/>
<path d="M3350 1400 c0 -5 5 -10 10 -10 6 0 10 5 10 10 0 6 -4 10 -10 10 -5 0
-10 -4 -10 -10z"/>
<path d="M3505 1400 c-3 -5 -1 -10 4 -10 6 0 11 5 11 10 0 6 -2 10 -4 10 -3 0
-8 -4 -11 -10z"/>
<path d="M815 1350 c3 -5 8 -10 11 -10 2 0 4 5 4 10 0 6 -5 10 -11 10 -5 0 -7
-4 -4 -10z"/>
<path d="M3342 1320 c0 -14 2 -19 5 -12 2 6 2 18 0 25 -3 6 -5 1 -5 -13z"/>
<path d="M3361 1333 c-1 -17 16 -25 25 -12 4 7 3 9 -4 5 -5 -3 -13 0 -15 6 -4
9 -6 10 -6 1z"/>
<path d="M3560 1330 c0 -5 5 -10 10 -10 6 0 10 5 10 10 0 6 -4 10 -10 10 -5 0
-10 -4 -10 -10z"/>
<path d="M1068 1319 c-3 -9 -2 -22 2 -30 13 -19 18 -8 10 21 -4 19 -7 21 -12
9z"/>
<path d="M1320 1312 c0 -12 19 -26 26 -19 2 2 -2 10 -11 17 -9 8 -15 8 -15 2z"/>
<path d="M1250 1301 c0 -5 5 -13 10 -16 6 -3 10 -2 10 4 0 5 -4 13 -10 16 -5
3 -10 2 -10 -4z"/>
<path d="M830 1279 c0 -5 5 -7 10 -4 6 3 10 8 10 11 0 2 -4 4 -10 4 -5 0 -10
-5 -10 -11z"/>
<path d="M956 1271 c-3 -4 6 -13 19 -19 19 -9 23 -8 19 3 -7 17 -31 27 -38 16z"/>
<path d="M3255 1256 c-18 -13 -18 -14 0 -32 15 -15 18 -16 13 -3 -4 9 -1 22 5
28 17 17 3 22 -18 7z"/>
<path d="M3354 1261 c3 -5 -1 -11 -9 -15 -12 -4 -13 -10 -4 -30 10 -21 15 -23
31 -15 15 8 17 14 9 22 -6 6 -11 19 -11 29 0 10 -5 18 -11 18 -5 0 -8 -4 -5
-9z"/>
<path d="M3390 1252 c0 -14 28 -47 35 -41 3 4 -1 13 -9 22 -8 8 -12 17 -9 21
4 3 1 6 -5 6 -7 0 -12 -4 -12 -8z"/>
<path d="M1440 1224 c0 -13 18 -39 24 -34 2 3 -2 14 -10 24 -8 11 -14 16 -14
10z"/>
<path d="M905 1211 c-6 -11 9 -23 19 -14 9 9 7 23 -3 23 -6 0 -12 -4 -16 -9z"/>
<path d="M1360 1210 c-30 -5 -36 -7 -17 -8 29 -2 37 -19 13 -28 -8 -3 -12 -12
-9 -20 3 -8 -1 -14 -8 -14 -15 0 -20 -62 -6 -76 4 -5 5 -1 1 9 -3 10 -1 17 5
17 6 0 11 -13 11 -29 0 -25 3 -28 23 -23 12 3 27 13 34 21 11 14 12 14 13 -1
0 -10 -4 -18 -10 -18 -5 0 -10 -7 -10 -15 0 -8 6 -15 14 -15 8 0 13 -8 11 -17
-1 -10 0 -12 2 -5 3 6 11 12 18 12 7 0 16 -6 18 -12 4 -10 6 -10 6 0 2 22 21
13 21 -10 0 -16 3 -19 11 -11 8 8 8 17 0 32 -7 12 -9 21 -5 21 3 0 1 7 -6 15
-18 21 -8 28 16 10 14 -11 16 -17 7 -23 -7 -4 -9 -13 -4 -21 6 -10 10 -9 15 4
3 9 10 13 16 10 6 -4 8 -11 5 -16 -4 -5 -2 -9 2 -9 5 0 14 9 21 20 7 11 18 20
26 20 7 0 16 9 19 19 6 24 -28 36 -46 17 -9 -11 -17 -7 -39 18 -23 26 -30 28
-37 16 -6 -8 -13 -11 -17 -7 -4 3 2 14 12 24 11 10 15 15 10 11 -5 -4 -16 -2
-25 5 -8 6 -12 7 -9 2 10 -16 -4 -33 -35 -40 -17 -5 -27 -3 -27 4 0 6 6 11 14
11 7 0 16 9 19 19 5 21 -9 41 -30 41 -16 0 -17 22 -1 38 7 7 10 11 8 10 -3 0
-25 -4 -50 -8z m18 -120 c7 -11 9 -20 4 -20 -10 0 -32 22 -32 32 0 15 15 8 28
-12z m139 -22 c-3 -8 -6 -5 -6 6 -1 11 2 17 5 13 3 -3 4 -12 1 -19z m-59 -33
c-3 -3 -9 2 -12 12 -6 14 -5 15 5 6 7 -7 10 -15 7 -18z m117 -5 c-3 -5 -10
-10 -16 -10 -5 0 -9 5 -9 10 0 6 7 10 16 10 8 0 12 -4 9 -10z"/>
<path d="M1182 1189 c-10 -27 -18 -28 -37 -4 -16 19 -16 19 -5 -3 6 -12 15
-20 20 -17 4 3 11 -1 13 -7 4 -10 6 -10 6 0 1 7 5 11 10 8 5 -3 11 5 13 19 6
30 -10 33 -20 4z"/>
<path d="M3105 1190 c-3 -5 -1 -10 4 -10 6 0 11 5 11 10 0 6 -2 10 -4 10 -3 0
-8 -4 -11 -10z"/>
<path d="M1300 1175 c11 -13 10 -14 -2 -10 -9 4 -18 -1 -21 -9 -4 -9 -1 -16 6
-16 7 0 4 -5 -6 -11 -9 -6 -15 -14 -12 -20 4 -5 13 -2 22 7 13 13 18 13 25 2
6 -9 7 -6 3 10 -5 16 -2 22 10 22 13 0 14 4 5 20 -6 11 -18 20 -27 20 -13 0
-13 -3 -3 -15z"/>
<path d="M720 1160 c0 -5 5 -10 10 -10 6 0 10 5 10 10 0 6 -4 10 -10 10 -5 0
-10 -4 -10 -10z"/>
<path d="M1036 1157 c3 -10 9 -15 12 -12 3 3 0 11 -7 18 -10 9 -11 8 -5 -6z"/>
<path d="M3195 1152 c-31 -13 -40 -32 -14 -32 6 0 7 5 4 10 -5 9 21 14 62 13
6 0 14 5 17 13 6 16 -22 15 -69 -4z"/>
<path d="M3525 1160 c3 -5 8 -10 11 -10 2 0 4 5 4 10 0 6 -5 10 -11 10 -5 0
-7 -4 -4 -10z"/>
<path d="M3605 1160 c3 -5 8 -10 11 -10 2 0 4 5 4 10 0 6 -5 10 -11 10 -5 0
-7 -4 -4 -10z"/>
<path d="M1116 1152 c-3 -6 -1 -14 5 -17 14 -9 20 -2 10 14 -6 8 -11 9 -15 3z"/>
<path d="M3074 1144 c10 -10 14 -24 10 -40 -4 -14 -2 -24 5 -24 6 0 11 8 11
18 0 34 -13 62 -27 62 -12 0 -12 -3 1 -16z"/>
<path d="M3114 1147 c-4 -7 -4 -9 1 -5 4 4 14 0 21 -10 12 -15 13 -15 14 -1 0
21 -27 32 -36 16z"/>
<path d="M1230 1130 c0 -5 5 -10 10 -10 6 0 10 5 10 10 0 6 -4 10 -10 10 -5 0
-10 -4 -10 -10z"/>
<path d="M3301 1135 c1 -19 18 -51 18 -35 0 8 -4 22 -9 30 -5 8 -9 11 -9 5z"/>
<path d="M1206 1103 c-12 -12 -6 -33 9 -33 8 0 15 6 15 14 0 17 -14 28 -24 19z"/>
<path d="M2986 1101 c-4 -5 -2 -12 3 -15 5 -4 12 -2 15 3 4 5 2 12 -3 15 -5 4
-12 2 -15 -3z"/>
<path d="M1646 1084 c-8 -21 -8 -24 5 -24 5 0 7 5 3 11 -4 8 3 9 25 4 35 -8
43 9 9 19 -33 8 -35 8 -42 -10z"/>
<path d="M3480 1091 c0 -5 5 -13 10 -16 6 -3 10 -2 10 4 0 5 -4 13 -10 16 -5
3 -10 2 -10 -4z"/>
<path d="M3078 1063 c7 -3 16 -2 19 1 4 3 -2 6 -13 5 -11 0 -14 -3 -6 -6z"/>
<path d="M2930 1041 c0 -5 5 -13 10 -16 6 -3 10 -2 10 4 0 5 -4 13 -10 16 -5
3 -10 2 -10 -4z"/>
<path d="M3061 1047 c2 -1 13 -9 24 -17 19 -14 19 -14 6 3 -7 9 -18 17 -24 17
-6 0 -8 -1 -6 -3z"/>
<path d="M3121 1041 c-9 -6 -10 -11 -2 -15 6 -4 11 -2 11 4 0 6 5 8 10 5 6 -3
10 -1 10 4 0 13 -10 14 -29 2z"/>
<path d="M3365 1040 c-3 -5 -1 -10 4 -10 6 0 11 5 11 10 0 6 -2 10 -4 10 -3 0
-8 -4 -11 -10z"/>
<path d="M3018 1033 c12 -2 22 -9 22 -14 0 -5 5 -9 11 -9 8 0 8 5 -1 15 -7 8
-22 14 -34 14 -20 -2 -20 -2 2 -6z"/>
<path d="M3175 1020 c-3 -5 -1 -10 4 -10 6 0 11 5 11 10 0 6 -2 10 -4 10 -3 0
-8 -4 -11 -10z"/>
<path d="M3670 1020 c0 -5 5 -10 10 -10 6 0 10 5 10 10 0 6 -4 10 -10 10 -5 0
-10 -4 -10 -10z"/>
<path d="M1624 1013 c10 -11 37 -12 30 -2 -3 5 -12 9 -21 9 -9 0 -13 -3 -9 -7z"/>
<path d="M2975 980 c3 -5 8 -10 11 -10 2 0 4 5 4 10 0 6 -5 10 -11 10 -5 0 -7
-4 -4 -10z"/>
<path d="M1520 959 c0 -23 7 -24 25 -5 12 12 11 15 -5 19 -15 4 -20 0 -20 -14z"/>
<path d="M1315 940 c3 -5 8 -10 11 -10 2 0 4 5 4 10 0 6 -5 10 -11 10 -5 0 -7
-4 -4 -10z"/>
<path d="M2655 936 c20 -14 35 -12 35 5 0 5 -12 9 -27 9 -26 0 -26 -1 -8 -14z"/>
<path d="M1595 920 c-3 -5 1 -10 10 -10 9 0 13 5 10 10 -3 6 -8 10 -10 10 -2
0 -7 -4 -10 -10z"/>
<path d="M2618 906 c-36 -13 -36 -30 -1 -21 32 8 36 11 32 22 -2 5 -16 4 -31
-1z"/>
<path d="M2800 913 c0 -4 5 -15 10 -23 8 -13 10 -13 10 2 0 9 -4 20 -10 23 -5
3 -10 3 -10 -2z"/>
<path d="M2665 890 c-3 -5 -1 -10 4 -10 6 0 11 5 11 10 0 6 -2 10 -4 10 -3 0
-8 -4 -11 -10z"/>
<path d="M3110 890 c0 -5 5 -10 10 -10 6 0 10 5 10 10 0 6 -4 10 -10 10 -5 0
-10 -4 -10 -10z"/>
<path d="M1606 874 c-5 -14 -4 -15 9 -4 17 14 19 20 6 20 -5 0 -12 -7 -15 -16z"/>
<path d="M1502 868 c-6 -6 -8 -17 -5 -24 7 -19 39 -18 47 1 7 19 -27 38 -42
23z"/>
<path d="M2870 870 c0 -4 6 -12 13 -18 15 -13 39 -1 29 13 -8 12 -42 16 -42 5z"/>
<path d="M1410 860 c0 -5 5 -10 10 -10 6 0 10 5 10 10 0 6 -4 10 -10 10 -5 0
-10 -4 -10 -10z"/>
<path d="M2455 860 c-3 -5 -1 -10 4 -10 6 0 11 5 11 10 0 6 -2 10 -4 10 -3 0
-8 -4 -11 -10z"/>
<path d="M2610 860 c0 -5 5 -10 10 -10 6 0 10 5 10 10 0 6 -4 10 -10 10 -5 0
-10 -4 -10 -10z"/>
<path d="M3295 860 c-3 -5 -1 -10 4 -10 6 0 11 5 11 10 0 6 -2 10 -4 10 -3 0
-8 -4 -11 -10z"/>
<path d="M2714 848 c-3 -4 4 -8 15 -8 11 0 22 4 25 8 2 4 -4 8 -15 8 -11 0
-23 -4 -25 -8z"/>
<path d="M3040 850 c0 -6 7 -10 15 -10 8 0 15 2 15 4 0 2 -7 6 -15 10 -8 3
-15 1 -15 -4z"/>
<path d="M3095 840 c-3 -5 -1 -10 4 -10 6 0 11 5 11 10 0 6 -2 10 -4 10 -3 0
-8 -4 -11 -10z"/>
<path d="M2390 832 c0 -15 32 -24 44 -12 7 7 7 10 -1 10 -6 0 -18 3 -27 6 -9
3 -16 2 -16 -4z"/>
<path d="M2930 830 c8 -5 20 -10 25 -10 6 0 3 5 -5 10 -8 5 -19 10 -25 10 -5
0 -3 -5 5 -10z"/>
<path d="M2473 823 c-16 -6 -17 -29 -1 -39 7 -4 8 -3 4 5 -4 6 -2 18 4 26 13
16 12 16 -7 8z"/>
<path d="M2716 817 c3 -10 9 -15 12 -12 3 3 0 11 -7 18 -10 9 -11 8 -5 -6z"/>
<path d="M1660 810 c0 -5 -9 -10 -19 -10 -25 0 -36 -29 -14 -37 9 -4 21 1 29
12 11 15 16 16 29 5 12 -10 15 -10 15 2 0 15 -19 38 -32 38 -4 0 -8 -4 -8 -10z"/>
<path d="M1990 810 c0 -5 5 -10 10 -10 6 0 10 5 10 10 0 6 -4 10 -10 10 -5 0
-10 -4 -10 -10z"/>
<path d="M2605 811 c-3 -5 -1 -12 5 -16 12 -7 30 2 30 16 0 12 -27 12 -35 0z"/>
<path d="M2770 810 c0 -5 5 -10 10 -10 6 0 10 5 10 10 0 6 -4 10 -10 10 -5 0
-10 -4 -10 -10z"/>
<path d="M2020 795 c0 -8 2 -15 4 -15 2 0 6 7 10 15 3 8 1 15 -4 15 -6 0 -10
-7 -10 -15z"/>
<path d="M2500 786 c0 -9 5 -16 10 -16 6 0 10 4 10 9 0 6 -4 13 -10 16 -5 3
-10 -1 -10 -9z"/>
<path d="M2550 790 c0 -5 5 -10 11 -10 5 0 7 5 4 10 -3 6 -8 10 -11 10 -2 0
-4 -4 -4 -10z"/>
<path d="M2960 790 c0 -5 5 -10 11 -10 5 0 7 5 4 10 -3 6 -8 10 -11 10 -2 0
-4 -4 -4 -10z"/>
<path d="M1860 780 c0 -5 5 -10 10 -10 6 0 10 5 10 10 0 6 -4 10 -10 10 -5 0
-10 -4 -10 -10z"/>
<path d="M2054 764 c8 -14 12 -34 9 -43 -3 -13 -2 -12 7 2 16 24 9 61 -12 65
-16 3 -16 1 -4 -24z"/>
<path d="M2850 761 c0 -25 6 -27 13 -6 4 8 2 17 -3 20 -6 4 -10 -3 -10 -14z"/>
<path d="M2130 754 c0 -8 5 -12 10 -9 6 4 8 11 5 16 -9 14 -15 11 -15 -7z"/>
<path d="M2382 758 c-13 -13 -16 -38 -4 -38 18 0 62 26 59 35 -5 15 -41 17
-55 3z"/>
<path d="M2606 751 c-14 -5 -16 -10 -8 -15 7 -4 10 -11 8 -15 -3 -4 8 -5 25
-3 32 5 36 11 17 30 -13 13 -15 14 -42 3z"/>
<path d="M2810 739 c0 -5 5 -7 10 -4 6 3 10 8 10 11 0 2 -4 4 -10 4 -5 0 -10
-5 -10 -11z"/>
<path d="M1510 720 c0 -5 5 -10 10 -10 6 0 10 5 10 10 0 6 -4 10 -10 10 -5 0
-10 -4 -10 -10z"/>
<path d="M1730 720 c0 -5 5 -10 11 -10 5 0 7 5 4 10 -3 6 -8 10 -11 10 -2 0
-4 -4 -4 -10z"/>
<path d="M1995 720 c-3 -5 1 -10 10 -10 9 0 13 5 10 10 -3 6 -8 10 -10 10 -2
0 -7 -4 -10 -10z"/>
<path d="M2840 716 c0 -22 19 -30 35 -16 22 18 18 30 -10 30 -15 0 -25 -6 -25
-14z"/>
<path d="M1940 710 c-12 -7 -11 -12 5 -30 13 -15 22 -17 29 -10 8 8 6 15 -6
24 -10 7 -15 16 -11 19 9 10 0 8 -17 -3z"/>
<path d="M2175 710 c-3 -5 1 -10 10 -10 9 0 13 5 10 10 -3 6 -8 10 -10 10 -2
0 -7 -4 -10 -10z"/>
<path d="M2256 695 c4 -8 11 -15 16 -15 6 0 5 6 -2 15 -7 8 -14 15 -16 15 -2
0 -1 -7 2 -15z"/>
<path d="M1710 680 c0 -5 5 -10 11 -10 5 0 7 5 4 10 -3 6 -8 10 -11 10 -2 0
-4 -4 -4 -10z"/>
<path d="M1545 670 c-3 -5 -1 -10 4 -10 6 0 11 5 11 10 0 6 -2 10 -4 10 -3 0
-8 -4 -11 -10z"/>
<path d="M1910 670 c0 -5 5 -10 10 -10 6 0 10 5 10 10 0 6 -4 10 -10 10 -5 0
-10 -4 -10 -10z"/>
<path d="M1240 650 c0 -5 5 -10 10 -10 6 0 10 5 10 10 0 6 -4 10 -10 10 -5 0
-10 -4 -10 -10z"/>
<path d="M2700 640 c0 -5 5 -10 10 -10 6 0 10 5 10 10 0 6 -4 10 -10 10 -5 0
-10 -4 -10 -10z"/>
<path d="M2399 624 c-11 -14 -9 -15 21 -12 18 2 35 9 38 16 6 18 -43 15 -59
-4z"/>
<path d="M1870 600 c0 -5 7 -10 15 -10 8 0 15 5 15 10 0 6 -7 10 -15 10 -8 0
-15 -4 -15 -10z"/>
<path d="M2540 595 c0 -8 5 -15 10 -15 6 0 10 7 10 15 0 8 -4 15 -10 15 -5 0
-10 -7 -10 -15z"/>
<path d="M1565 580 c-3 -5 -1 -10 4 -10 6 0 11 5 11 10 0 6 -2 10 -4 10 -3 0
-8 -4 -11 -10z"/>
</g>
</svg>
